<?xml version="1.0" standalone="no"?>
<!DOCTYPE svg PUBLIC "-//W3C//DTD SVG 20010904//EN"
 "http://www.w3.org/TR/2001/REC-SVG-20010904/DTD/svg10.dtd">
<svg version="1.0" xmlns="http://www.w3.org/2000/svg"
 width="865.000000pt" height="865.000000pt" viewBox="0 0 865.000000 865.000000"
 preserveAspectRatio="xMidYMid meet">

<g transform="translate(0.000000,865.000000) scale(0.100000,-0.100000)"
fill="#000000" stroke="none">
<path d="M0 4325 l0 -4325 2193 1 c1216 0 2183 4 2172 9 -15 7 -10 9 23 9 26
1 41 -3 37 -9 -4 -7 301 -10 907 -9 502 0 907 3 900 6 -7 3 -23 15 -35 27 -22
22 -98 68 -230 140 -37 20 -100 56 -140 79 -39 23 -101 55 -137 71 -36 15 -69
34 -75 40 -10 12 -182 116 -192 116 -2 0 -32 20 -66 44 -34 24 -87 57 -117 74
-30 16 -84 47 -120 67 -36 21 -114 66 -175 100 -60 34 -128 73 -150 87 -22 13
-56 32 -75 42 -46 22 -75 44 -67 52 3 3 21 -5 39 -19 18 -14 75 -47 126 -73
130 -68 163 -86 197 -109 17 -12 48 -27 70 -34 22 -8 42 -17 45 -20 7 -9 132
-79 195 -109 28 -13 58 -28 67 -33 10 -5 24 -9 32 -9 8 0 21 -6 29 -14 8 -8
29 -22 48 -31 19 -8 63 -33 99 -55 36 -21 83 -48 105 -59 22 -12 67 -37 100
-56 33 -20 70 -40 83 -45 31 -13 261 -139 292 -160 14 -10 69 -40 123 -69 l98
-51 717 0 c394 0 722 4 728 8 6 4 14 17 18 29 8 25 26 29 44 11 9 -9 12 -6 12
15 0 15 5 27 10 27 6 0 10 33 10 80 0 47 -4 80 -10 80 -5 0 -10 -7 -10 -16 0
-14 -3 -14 -15 -4 -9 8 -15 29 -15 55 0 26 -5 45 -12 48 -7 2 -5 3 4 2 11 -2
19 6 23 26 4 16 10 27 15 24 5 -3 12 0 16 6 3 6 2 14 -4 18 -6 3 -13 23 -17
44 -7 35 -6 37 19 37 24 0 26 -4 26 -40 0 -29 4 -40 15 -40 10 0 15 11 15 35
0 19 -4 35 -10 35 -20 0 -9 18 43 70 l52 52 3 -38 c2 -26 -1 -40 -12 -46 -20
-11 -21 -28 -1 -28 8 0 15 -7 15 -15 0 -20 69 -20 96 0 17 13 17 14 2 15 -27
0 -22 17 15 50 36 33 47 37 47 16 0 -11 20 -15 88 -18 113 -4 152 1 152 18 0
8 8 14 18 15 10 0 12 3 5 6 -7 2 -13 9 -13 14 0 14 27 11 44 -6 17 -17 30 -20
21 -5 -8 13 11 13 52 -2 47 -17 43 -38 -7 -38 -22 0 -40 -4 -40 -10 0 -5 18
-10 40 -10 29 0 40 -4 40 -15 0 -11 -12 -15 -44 -15 -36 0 -44 3 -42 17 1 12
-7 19 -24 21 -23 2 -24 1 -8 -11 28 -22 22 -27 -29 -27 -44 -1 -47 -2 -29 -15
14 -10 45 -15 103 -15 l83 0 0 1422 0 1423 -82 3 c-46 2 -84 8 -86 13 -6 16
-27 9 -46 -17 l-19 -26 24 7 c20 7 22 6 12 -7 -7 -8 -10 -17 -7 -20 3 -3 7
-23 10 -44 3 -28 16 -51 46 -81 54 -55 45 -67 -44 -61 -61 5 -73 9 -100 37
-17 17 -33 29 -36 27 -2 -3 -17 1 -33 10 l-29 14 5 -42 c3 -23 10 -47 14 -52
5 -6 12 -26 16 -44 4 -18 17 -42 28 -54 15 -14 18 -22 9 -25 -7 -3 -12 -22
-12 -48 0 -26 -6 -47 -15 -55 -8 -7 -15 -23 -15 -36 0 -26 -10 -30 -27 -13 -6
6 -30 12 -53 13 -23 1 -45 7 -48 13 -7 10 -102 27 -102 18 0 -12 24 -55 31
-55 9 0 23 -38 24 -65 0 -12 8 -21 20 -23 11 -2 24 -8 30 -13 6 -6 -14 -9 -53
-8 -68 2 -82 -5 -86 -42 -1 -14 -6 -31 -11 -39 -5 -8 -8 -33 -7 -55 1 -22 -1
-34 -4 -27 -3 6 -16 12 -29 12 -13 0 -27 4 -30 10 -8 13 -52 13 -60 -1 -4 -6
2 -13 14 -16 25 -6 28 -23 5 -23 -12 0 -14 -5 -8 -17 4 -10 6 -37 5 -59 -1
-37 1 -43 29 -54 17 -7 35 -21 41 -31 5 -11 16 -19 24 -19 21 0 63 -60 57 -82
-6 -24 -25 -34 -84 -42 -26 -4 -47 -10 -47 -14 4 -24 -3 -41 -19 -46 -25 -8
-46 -46 -33 -59 8 -8 11 -6 11 6 0 9 5 17 10 17 6 0 10 -13 10 -28 0 -15 4
-32 10 -38 6 -6 5 -18 -3 -34 -10 -20 -22 -26 -59 -30 -48 -6 -73 -19 -50 -27
26 -10 -2 -23 -49 -23 -27 0 -49 -2 -49 -5 0 -11 24 -55 31 -55 4 0 7 -15 7
-34 0 -45 -21 -52 -61 -22 -33 25 -52 29 -124 27 -50 -1 -53 -11 -21 -72 l21
-41 -36 -33 c-20 -18 -39 -46 -42 -62 -12 -52 -14 -55 -33 -48 -34 15 -131 22
-174 13 -123 -25 -176 -20 -271 28 -27 13 -57 24 -68 24 -11 0 -28 5 -38 12
-16 9 -42 9 -128 -5 -59 -9 -128 -19 -153 -21 -25 -3 -59 -12 -75 -20 -17 -9
-36 -16 -43 -16 -7 0 -26 -10 -41 -21 -16 -12 -35 -19 -42 -17 -15 5 -39 -34
-39 -61 0 -24 -9 -31 -29 -22 -43 22 -71 32 -126 44 -33 7 -59 18 -58 24 2 7
-11 8 -40 1 -70 -16 -195 15 -244 60 -31 29 -46 28 -63 -3 -7 -14 -21 -25 -31
-25 -31 0 -69 19 -69 34 0 9 -10 21 -22 27 -43 23 -118 92 -118 109 0 9 -11
45 -25 80 -31 79 -31 118 -1 200 72 199 152 286 331 365 63 28 120 33 230 23
49 -5 64 -2 80 12 11 10 40 25 65 33 37 12 49 23 67 58 12 24 23 53 23 64 0
11 7 31 15 45 20 34 20 109 0 116 -11 4 -15 21 -15 58 0 29 -5 57 -11 63 -5 5
-13 36 -16 67 -6 55 -6 56 -37 56 -17 0 -41 7 -53 15 -15 10 -32 13 -50 9 -39
-10 -87 -34 -96 -50 -4 -8 -16 -14 -27 -14 -10 0 -21 -6 -23 -12 -3 -7 -6 44
-6 114 -1 119 -2 128 -23 142 -12 9 -35 16 -50 16 -39 0 -57 33 -56 105 1 68
-14 105 -41 105 -10 0 -24 7 -31 15 -14 17 -27 141 -33 298 -2 57 -8 101 -14
105 -6 4 -66 7 -132 7 -67 0 -121 2 -121 6 0 12 -55 -4 -67 -20 -11 -15 -12
-15 -13 0 0 18 -30 35 -30 17 0 -7 -4 -7 -12 -1 -7 5 -35 11 -62 12 -27 2 -65
11 -86 22 -20 11 -63 24 -95 29 -31 5 -64 15 -73 22 -8 7 -42 13 -76 14 -175
2 -184 3 -190 22 -8 24 -58 43 -188 72 -32 7 -58 17 -58 22 0 4 -15 8 -34 8
-19 0 -38 5 -41 10 -3 5 -15 10 -26 10 -11 0 -31 7 -45 17 -17 11 -45 16 -84
16 -49 -1 -62 3 -81 23 -12 13 -29 24 -37 24 -15 0 -51 -39 -52 -56 0 -6 -11
-21 -25 -34 -14 -13 -25 -29 -25 -37 0 -7 -18 -32 -40 -54 -22 -23 -40 -47
-40 -54 0 -7 -7 -18 -15 -25 -25 -21 -18 -34 41 -75 31 -22 69 -50 84 -62 15
-13 37 -23 47 -23 11 0 28 -9 38 -20 10 -11 26 -20 35 -20 10 0 23 -6 29 -14
6 -7 30 -16 52 -19 22 -3 46 -12 52 -20 7 -8 35 -21 64 -28 33 -8 49 -17 46
-25 -5 -15 42 -27 95 -23 21 2 43 0 50 -5 13 -8 77 2 105 16 11 5 30 7 43 4
18 -5 24 -13 24 -34 0 -85 5 -122 17 -122 7 0 24 -25 39 -56 14 -30 35 -60 45
-67 10 -6 19 -17 19 -22 0 -18 74 -85 93 -85 10 0 22 -11 27 -24 4 -13 25 -33
44 -46 36 -21 46 -43 26 -55 -6 -3 -10 -15 -10 -25 0 -10 -6 -23 -12 -27 -7
-4 -18 -17 -24 -27 -22 -41 -109 -54 -206 -30 -24 5 -28 3 -28 -15 0 -12 -6
-21 -15 -21 -9 0 -12 -6 -9 -15 4 -8 -1 -27 -11 -41 -9 -14 -14 -32 -11 -40 7
-19 -33 -28 -67 -15 -15 6 -27 15 -27 21 0 5 -8 10 -17 10 -10 1 -34 9 -53 19
-32 18 -34 21 -31 65 2 43 1 46 -23 46 -14 0 -29 -6 -33 -14 -10 -19 -92 -38
-112 -26 -11 6 -15 26 -16 72 -1 80 -13 101 -67 118 -24 8 -54 27 -67 42 -25
29 -61 38 -61 14 0 -7 -6 -26 -14 -41 -8 -15 -12 -33 -9 -40 2 -8 -8 -22 -24
-32 -15 -9 -30 -20 -33 -24 -3 -3 -22 -9 -43 -12 -20 -3 -49 -15 -64 -26 -14
-12 -32 -21 -39 -21 -8 0 -14 -4 -14 -9 0 -6 -13 -30 -30 -54 -16 -25 -30 -50
-30 -56 0 -19 -43 -34 -105 -37 -34 -2 -73 -7 -86 -13 -25 -9 -146 -7 -209 4
-19 4 -49 15 -66 26 -18 11 -63 24 -100 29 -38 6 -84 13 -101 16 -20 4 -33 2
-33 -4 0 -14 24 -21 82 -23 27 -2 49 -8 52 -15 3 -7 22 -16 43 -20 21 -4 51
-13 66 -21 15 -7 31 -12 35 -9 19 11 34 -16 41 -71 4 -33 19 -84 34 -114 29
-60 39 -130 19 -137 -6 -2 -12 -12 -12 -23 0 -10 -7 -19 -15 -19 -8 0 -15 -4
-15 -10 0 -5 -8 -10 -17 -10 -9 0 -46 -12 -82 -27 -66 -26 -152 -45 -291 -64
-41 -6 -109 -19 -150 -29 -97 -24 -150 -31 -150 -19 0 14 -38 11 -47 -5 -4 -7
-34 -21 -66 -30 -71 -20 -84 -12 -78 50 l3 44 -41 0 -41 0 0 44 c0 26 6 48 15
56 12 10 15 10 15 -4 0 -10 9 -16 25 -16 25 0 25 1 25 80 l0 80 -28 0 c-16 0
-42 6 -58 14 -21 11 -41 12 -74 6 -27 -5 -46 -5 -48 1 -2 5 -21 9 -43 9 -28 0
-39 -4 -39 -15 0 -21 -10 -19 -36 6 -25 24 -59 45 -86 55 -13 5 -18 17 -18 45
0 22 -4 39 -10 39 -5 0 -10 18 -10 40 0 36 3 40 25 40 23 0 25 4 25 40 0 29 4
40 15 40 27 0 15 24 -28 59 -40 32 -45 33 -102 27 -33 -3 -66 -2 -73 2 -7 5 9
8 37 9 36 0 54 6 70 22 16 16 33 21 73 21 53 0 118 18 118 32 0 4 8 8 18 8 43
1 -25 29 -131 54 -241 58 -307 82 -325 120 -6 11 -15 62 -22 111 -6 50 -15
113 -20 140 -11 62 -42 261 -46 295 -5 47 -34 255 -44 310 -5 30 -12 91 -16
135 -3 44 -10 85 -14 90 -8 10 -20 86 -60 395 -24 186 -58 415 -80 540 -4 25
-11 76 -15 115 -3 38 -9 73 -11 77 -3 4 -7 27 -10 50 -2 24 -12 93 -20 153 -8
61 -19 148 -24 195 -5 47 -14 110 -19 140 -5 30 -19 120 -30 200 -11 80 -26
179 -31 220 -6 41 -17 116 -25 165 -7 50 -19 131 -25 180 -7 50 -19 124 -27
165 -8 41 -16 118 -19 170 -2 52 -9 118 -14 145 -6 28 -18 97 -26 155 -9 58
-20 130 -25 160 -5 30 -14 93 -19 140 -6 47 -15 112 -20 145 -5 33 -16 112
-24 175 -9 63 -23 164 -31 224 -10 76 -12 113 -5 122 8 8 7 13 -2 16 -13 5
-14 16 -17 133 -1 33 -4 79 -8 103 l-5 42 -604 0 -604 0 0 -4325z m4260 -529
c0 -2 -7 -6 -15 -10 -8 -3 -15 -1 -15 4 0 6 7 10 15 10 8 0 15 -2 15 -4z m485
-216 c-3 -5 -10 -10 -16 -10 -5 0 -9 5 -9 10 0 6 7 10 16 10 8 0 12 -4 9 -10z
m712 -87 c-3 -10 -5 -4 -5 12 0 17 2 24 5 18 2 -7 2 -21 0 -30z m0 -45 c-3 -8
-6 -5 -6 6 -1 11 2 17 5 13 3 -3 4 -12 1 -19z m-219 -202 c3 -15 1 -16 -17 -6
-12 6 -19 16 -15 21 9 15 28 5 32 -15z m106 -33 c-10 -40 -14 -41 -14 -5 0 18
5 32 10 32 6 0 8 -11 4 -27z m202 -5 c3 -5 -7 -6 -21 -4 -16 3 -43 -3 -66 -15
-38 -19 -39 -21 -39 -75 0 -34 -4 -53 -10 -49 -19 12 -11 100 11 129 18 23 27
26 70 25 27 -1 52 -6 55 -11z m-226 -113 c-13 -16 -98 -10 -115 7 -7 7 4 9 32
4 35 -5 47 -2 63 14 11 11 21 26 21 33 1 6 4 -1 6 -16 3 -16 -1 -34 -7 -42z
m336 -46 c12 -14 13 -22 4 -38 -13 -24 -25 -28 -16 -5 3 8 -1 28 -9 44 -8 16
-15 37 -14 47 0 13 3 11 10 -7 6 -13 17 -32 25 -41z m144 27 c0 -36 -14 -76
-27 -76 -11 0 -11 4 -3 20 6 12 10 28 9 38 -2 26 0 32 11 32 6 0 10 -6 10 -14z
m-230 -12 c0 -11 -5 -14 -16 -10 -9 3 -20 6 -25 6 -6 0 -7 5 -4 10 10 16 45
12 45 -6z m-137 -74 c3 -14 1 -20 -6 -17 -7 2 -14 14 -15 26 -4 28 13 20 21
-9z m-3353 10 c0 -5 -4 -10 -10 -10 -5 0 -10 5 -10 10 0 6 5 10 10 10 6 0 10
-4 10 -10z m3470 -32 c0 -14 -19 1 -31 25 -12 22 -12 22 10 3 11 -11 21 -23
21 -28z m195 -35 c-4 -21 -11 -39 -16 -41 -5 -2 -9 -11 -9 -19 0 -9 -2 -14 -5
-11 -3 3 0 28 6 57 12 59 35 72 24 14z m-2195 -600 c0 -14 -17 -34 -26 -32
-30 5 -35 -2 -30 -45 4 -41 2 -45 -25 -56 -16 -7 -29 -16 -29 -21 0 -5 -20 -9
-45 -9 -25 0 -57 -7 -70 -16 -13 -8 -34 -15 -47 -13 -33 3 -58 -10 -58 -31 0
-11 -4 -22 -10 -25 -5 -3 -10 1 -10 9 0 12 -10 16 -40 16 -29 0 -40 4 -40 15
0 11 -11 15 -41 15 -40 0 -41 1 -35 28 5 20 4 23 -4 12 -7 -11 -12 -12 -17 -4
-5 7 -17 13 -28 15 -34 7 -18 24 30 31 25 3 52 11 58 16 11 9 74 25 107 28 8
0 33 6 55 12 22 7 52 12 66 12 15 0 40 7 55 15 16 8 43 15 59 16 17 0 39 4 50
9 25 11 75 12 75 3z m-1396 -93 c30 -11 35 -30 9 -30 -25 1 -75 39 -51 40 9 0
28 -4 42 -10z m676 -69 c0 -6 -5 -13 -10 -16 -15 -9 -43 3 -35 15 8 13 45 13
45 1z m-433 -72 c32 -17 74 -41 93 -52 19 -12 48 -29 64 -37 31 -16 46 -40 26
-40 -27 0 -241 117 -273 149 -23 23 33 11 90 -20z m-35 -146 c18 -16 17 -17
-11 -29 -23 -10 -37 -10 -61 -1 -38 14 -38 20 3 34 46 15 49 15 69 -4z m-110
-304 c-9 -9 -72 -22 -72 -15 0 2 4 17 10 31 10 26 10 26 40 8 16 -9 26 -20 22
-24z m341 -198 c3 -14 11 -18 26 -14 12 3 21 1 21 -5 0 -5 -19 -15 -42 -21
-24 -7 -49 -15 -56 -18 -8 -3 -16 4 -19 17 -4 15 -11 20 -24 17 -11 -3 -19 0
-19 8 0 6 19 17 43 22 61 15 64 15 70 -6z m4237 -51 c11 -7 4 -10 -25 -10 -22
0 -47 5 -55 10 -11 7 -4 10 25 10 22 0 47 -5 55 -10z m-3806 -200 c39 -15 32
-24 -33 -42 -53 -14 -62 -14 -81 -1 -12 8 -19 20 -17 26 7 23 88 34 131 17z
m1501 -180 c8 -13 -15 -13 -35 0 -12 8 -11 10 7 10 12 0 25 -4 28 -10z m73
-36 c27 -13 43 -34 27 -34 -5 0 -77 40 -84 46 -11 11 30 2 57 -12z m-1138 -59
c0 -16 -55 -55 -77 -55 -7 0 -10 7 -7 15 5 11 -1 15 -19 15 -14 0 -29 4 -32
10 -6 10 19 18 80 23 22 2 43 4 48 5 4 1 7 -5 7 -13z m-825 -17 c14 -6 25 -17
25 -24 0 -34 -120 -60 -148 -32 -17 17 -15 38 3 38 8 0 15 -4 15 -10 0 -5 7
-10 16 -10 11 0 13 6 9 19 -4 15 0 21 17 24 13 2 26 5 30 6 4 0 19 -4 33 -11z
m1293 -264 c48 -13 16 -57 -51 -68 -37 -6 -77 12 -77 36 0 24 17 23 30 -2 12
-23 28 -25 65 -8 27 12 29 35 1 30 -9 -2 -16 2 -16 8 0 11 14 13 48 4z m-1421
-10 c-3 -3 -12 -4 -19 -1 -8 3 -5 6 6 6 11 1 17 -2 13 -5z m2433 2 c0 -3 -4
-8 -10 -11 -5 -3 -10 -1 -10 4 0 6 5 11 10 11 6 0 10 -2 10 -4z m52 -13 c21
-19 23 -33 5 -33 -12 0 -47 34 -47 45 0 11 24 4 42 -12z m3555 -4 c-14 -8 -22
-8 -30 0 -8 8 -3 11 19 11 25 -1 27 -2 11 -11z m-5512 -29 c4 -6 21 -8 41 -4
51 9 42 -11 -13 -30 -57 -20 -84 -20 -109 -2 -25 19 -9 34 17 17 20 -12 33 -9
35 10 3 17 4 19 13 19 6 0 13 -5 16 -10z m2082 -35 c12 -12 43 -33 70 -46 26
-12 50 -26 53 -29 3 -4 13 -9 23 -13 9 -3 17 -13 17 -22 0 -17 -16 -20 -25 -5
-3 6 -14 10 -23 10 -9 0 -35 14 -56 30 -22 17 -46 30 -53 30 -7 0 -21 9 -30
20 -10 11 -25 20 -35 20 -18 0 -42 33 -32 43 10 10 68 -15 91 -38z m-365 2 c7
-8 26 -17 41 -21 32 -8 27 -26 -8 -26 -13 0 -27 -4 -30 -10 -11 -17 -37 -11
-61 15 -22 24 -22 25 -4 25 11 0 20 7 20 15 0 19 24 20 42 2z m578 -133 c0
-22 -2 -24 -14 -14 -8 6 -12 18 -9 26 9 23 23 16 23 -12z m55 -24 c-3 -5 -13
-10 -21 -10 -8 0 -12 5 -9 10 3 6 13 10 21 10 8 0 12 -4 9 -10z m-962 -80 c3
-14 14 -20 32 -20 15 0 24 -4 20 -10 -3 -5 -21 -10 -39 -10 -19 0 -39 -7 -46
-15 -7 -8 -16 -15 -21 -15 -5 0 -9 7 -9 15 0 10 -10 15 -31 15 -20 0 -29 4
-26 13 2 6 18 12 35 12 17 0 39 8 49 18 22 22 29 22 36 -3z m-1898 -10 c-6
-18 -3 -19 27 -14 29 6 31 5 18 -9 -8 -8 -39 -22 -68 -32 -49 -16 -55 -16 -77
-1 -14 9 -25 23 -25 30 0 18 51 38 118 45 9 1 11 -6 7 -19z m498 13 c-23 -9
-14 -51 17 -76 17 -14 30 -27 30 -29 0 -2 -19 -4 -43 -4 -23 -1 -36 1 -29 3
17 7 15 33 -5 55 -9 11 -11 18 -5 18 7 0 12 5 12 10 0 6 -14 10 -31 10 -47 0
-26 15 23 16 23 1 37 -1 31 -3z m552 -45 c40 -18 26 -39 -39 -61 l-58 -19 -25
25 c-15 14 -22 30 -18 37 18 28 95 39 140 18z m2075 -36 c0 -4 14 -13 30 -19
17 -6 30 -18 30 -27 0 -20 17 -21 22 -1 2 12 9 10 31 -10 15 -14 32 -23 37
-20 6 4 17 -1 26 -9 8 -9 26 -16 39 -16 14 0 29 -9 35 -20 6 -11 20 -20 30
-20 11 0 20 -6 20 -14 0 -20 -35 -26 -62 -10 -12 7 -35 18 -50 25 -16 6 -28
15 -28 20 0 5 -11 9 -24 9 -13 0 -26 7 -29 15 -4 8 -22 21 -42 29 -19 8 -35
20 -35 25 0 6 -8 11 -17 11 -26 0 -47 16 -39 29 8 13 26 15 26 3z m-2462 -92
c28 -19 52 -38 52 -42 0 -5 5 -8 10 -8 15 0 123 -81 116 -87 -5 -5 -75 42
-209 140 -95 70 -77 68 31 -3z m2245 -34 c26 -6 35 -20 20 -29 -5 -2 -27 6
-50 19 -24 12 -37 24 -30 27 6 2 17 1 22 -3 6 -4 22 -10 38 -14z m2487 -11 c0
-8 -7 -15 -16 -15 -14 0 -14 3 -4 15 7 8 14 15 16 15 2 0 4 -7 4 -15z"/>
<path d="M3105 2200 c-3 -5 -1 -10 4 -10 6 0 11 5 11 10 0 6 -2 10 -4 10 -3 0
-8 -4 -11 -10z"/>
<path d="M2590 880 c0 -5 4 -10 9 -10 6 0 13 5 16 10 3 6 -1 10 -9 10 -9 0
-16 -4 -16 -10z"/>
<path d="M2440 280 c0 -5 5 -10 10 -10 6 0 10 5 10 10 0 6 -4 10 -10 10 -5 0
-10 -4 -10 -10z"/>
<path d="M3483 263 c-20 -8 -15 -33 6 -33 31 0 73 19 66 30 -6 10 -50 12 -72
3z"/>
<path d="M7573 7623 c-43 -17 -187 -113 -234 -155 -10 -10 -21 -18 -24 -18 -2
0 -28 -24 -58 -52 -116 -114 -251 -238 -259 -238 -4 0 -8 -6 -8 -12 0 -7 -10
-22 -23 -34 -46 -43 -124 -110 -156 -134 -19 -14 -52 -42 -75 -62 -22 -21 -47
-38 -53 -38 -7 0 -13 -4 -13 -10 0 -5 -4 -10 -10 -10 -5 0 -10 7 -10 15 0 8 5
15 12 15 6 0 28 17 48 38 19 22 46 44 59 51 41 22 178 147 170 155 -2 3 -36 0
-74 -5 -39 -5 -104 -12 -145 -15 -41 -4 -96 -15 -123 -25 -51 -20 -161 -26
-172 -9 -3 6 -33 10 -66 10 -33 0 -69 4 -79 10 -10 5 -60 12 -111 15 -139 8
-193 15 -200 26 -12 21 -173 52 -209 42 -14 -4 -70 -8 -125 -9 -96 0 -171 -13
-184 -31 -3 -4 -19 -8 -36 -8 -16 0 -35 -7 -42 -15 -11 -13 -12 -13 -13 3 0
10 -4 15 -10 12 -5 -3 -35 -6 -67 -6 -32 0 -91 -7 -131 -16 -85 -20 -94 -30
-102 -118 -4 -50 -8 -60 -25 -64 -11 -2 -23 -9 -27 -16 -4 -7 -20 -16 -35 -20
-16 -3 -42 -17 -60 -31 -17 -13 -43 -24 -57 -24 -15 0 -30 -8 -36 -21 -7 -11
-18 -18 -25 -15 -7 2 -21 -4 -31 -15 -9 -10 -27 -19 -39 -19 -25 0 -63 25 -53
35 4 4 3 15 -2 24 -12 24 0 38 35 42 17 2 32 6 35 9 20 20 87 52 115 54 12 1
19 8 19 19 -1 9 4 17 11 17 15 0 25 22 25 56 0 19 -5 24 -27 25 l-28 1 30 8
30 8 -32 1 c-39 1 -65 -8 -57 -21 4 -6 -1 -8 -14 -4 -13 5 -32 0 -49 -11 -15
-10 -28 -17 -30 -15 -27 22 -155 -72 -200 -148 -13 -22 -28 -40 -32 -40 -4 0
-14 -11 -21 -25 -7 -13 -20 -27 -29 -30 -9 -3 -38 -34 -66 -69 -51 -64 -92
-91 -156 -102 -31 -5 -38 -11 -43 -36 -3 -17 -6 -41 -6 -54 0 -13 -4 -24 -10
-24 -18 0 -10 -39 9 -45 10 -3 24 -19 31 -34 23 -56 83 -45 95 16 3 19 12 36
20 39 7 3 16 16 19 29 12 49 76 79 76 35 0 -23 10 -26 28 -8 7 7 12 8 12 3 1
-6 3 -60 6 -120 6 -107 5 -113 -24 -180 -17 -39 -41 -104 -54 -145 -27 -87
-28 -87 -165 -89 l-81 -1 -7 41 c-5 31 -19 54 -51 86 -39 39 -93 128 -95 157
-1 24 -86 131 -102 130 -9 -1 -14 2 -11 7 3 5 -4 9 -15 9 -12 0 -26 11 -35 29
-40 76 -221 81 -316 9 -74 -57 -163 -233 -179 -353 l-6 -50 -45 -5 c-39 -4
-45 -8 -48 -30 -3 -35 9 -49 54 -65 37 -12 39 -16 50 -71 18 -101 73 -233 124
-302 29 -39 49 -43 22 -4 -11 15 -23 43 -27 62 -4 19 -11 40 -15 45 -16 20
-60 166 -66 219 -7 54 -6 54 22 58 16 2 45 0 64 -4 19 -4 64 -8 99 -9 57 -1
66 2 82 22 10 13 19 27 19 31 0 10 -90 26 -184 32 -118 7 -121 10 -101 110 29
138 106 266 185 306 45 23 113 26 174 8 50 -15 176 -136 176 -168 0 -12 5 -30
11 -41 6 -12 8 -27 5 -36 -5 -13 -9 -13 -23 -2 -15 13 -16 11 -8 -11 15 -44
17 -202 4 -258 -12 -50 -11 -53 11 -77 13 -14 19 -25 14 -25 -5 0 8 -11 29
-25 29 -20 37 -32 37 -56 0 -50 31 -32 67 40 48 93 49 94 108 88 63 -7 180
-44 195 -62 6 -7 13 -37 16 -66 9 -102 27 -164 72 -248 65 -122 115 -176 202
-219 48 -24 64 -27 130 -23 187 9 185 9 188 -24 6 -62 44 -116 75 -107 5 1 6
-1 3 -6 -8 -13 7 -28 39 -40 26 -9 27 -11 8 -11 -31 -1 -29 -21 1 -21 14 0 28
-5 32 -11 4 -7 21 -9 45 -5 31 5 39 3 44 -13 3 -10 25 -26 49 -35 25 -9 47
-24 50 -31 3 -8 12 -15 21 -15 18 0 20 -16 2 -27 -9 -6 -5 -16 15 -38 22 -23
28 -26 28 -12 0 9 5 17 10 17 6 0 10 -9 10 -20 0 -11 4 -20 8 -20 4 0 13 -15
20 -33 19 -53 121 -92 209 -80 34 4 53 1 88 -18 25 -13 45 -29 45 -36 0 -7 19
-18 43 -25 23 -6 58 -21 77 -31 19 -11 74 -32 121 -48 82 -26 89 -27 185 -17
178 18 233 10 290 -42 23 -21 61 -51 85 -66 24 -16 53 -37 63 -46 11 -10 23
-18 27 -18 5 0 17 -10 28 -22 20 -21 21 -21 59 -4 48 22 95 18 100 -7 3 -12
-4 -20 -17 -24 -24 -6 -28 -23 -6 -23 21 0 28 -21 16 -52 -10 -27 -65 -58
-104 -58 -26 0 -57 -36 -57 -67 0 -30 -47 -72 -87 -78 -54 -9 -124 -35 -118
-45 10 -17 -23 -27 -85 -25 -59 1 -68 -1 -94 -27 -17 -17 -35 -27 -44 -23 -13
5 -13 3 0 -17 8 -13 33 -29 54 -36 52 -18 165 -12 187 10 9 9 30 19 47 23 18
4 27 11 24 17 -5 7 -2 8 5 4 7 -5 18 -2 24 6 7 8 31 23 55 33 36 15 45 16 52
5 5 -7 18 -15 30 -17 31 -5 61 -23 55 -33 -3 -5 19 -6 50 -3 55 6 55 6 55 -22
0 -20 4 -26 15 -21 10 4 15 -1 15 -14 0 -11 -7 -20 -15 -20 -8 0 -15 -7 -15
-15 0 -8 5 -15 10 -15 6 0 10 5 10 12 0 6 9 3 20 -7 11 -10 20 -26 20 -35 0
-13 11 -19 43 -23 50 -7 130 6 135 22 2 6 14 11 27 11 13 0 27 5 30 10 4 6 12
10 18 9 18 -2 57 12 57 21 0 4 9 10 20 13 26 7 37 36 19 48 -12 8 -11 12 4 23
9 7 17 21 17 30 0 9 5 16 10 16 6 0 10 6 10 14 0 8 11 36 24 63 13 26 27 65
31 85 4 21 12 36 19 35 6 -1 12 14 14 35 2 25 14 49 38 74 19 21 34 41 34 46
0 4 11 23 24 43 21 30 23 40 14 61 -9 19 -8 28 4 41 24 28 48 80 48 105 0 26
72 108 94 108 15 0 75 69 91 103 5 12 16 28 23 36 7 7 12 28 10 46 -1 18 2 39
8 46 6 8 21 35 33 61 19 40 21 56 15 105 -4 32 -8 60 -7 63 0 3 3 19 6 36 5
28 3 33 -21 42 -59 23 -81 23 -102 2 -19 -19 -21 -19 -59 -3 -22 9 -40 24 -40
33 -1 8 -4 38 -7 66 -6 51 -5 51 25 57 18 4 31 13 31 22 0 8 7 15 15 15 8 0
19 9 25 20 6 11 15 18 20 15 15 -9 40 6 40 25 0 10 -7 23 -15 30 -8 7 -15 19
-15 28 0 27 52 123 75 138 29 19 38 86 26 211 -7 82 -11 96 -34 117 -18 17
-27 35 -27 55 0 44 -19 83 -66 132 -5 5 -25 22 -44 39 -36 31 -69 109 -46 111
6 0 -2 5 -18 9 -35 11 -44 6 -56 -26 -10 -26 -40 -33 -40 -9 0 8 -5 14 -12 12
-6 -1 -14 7 -16 18 -2 11 -10 27 -17 35 -28 31 -37 77 -36 165 2 89 2 90 44
143 50 63 44 53 100 172 80 169 107 284 107 456 0 71 -30 175 -65 230 -8 12
-15 39 -17 61 l-3 40 -32 -14z m-183 -492 l24 -19 -24 -20 -24 -19 -33 33
c-18 18 -33 36 -33 39 0 13 68 3 90 -14z m-1592 -58 c23 -3 42 -9 42 -14 0 -4
7 -6 15 -3 10 4 16 0 16 -12 2 -25 5 -47 9 -59 11 -43 5 -50 -50 -62 -83 -18
-100 -16 -100 7 0 17 -3 19 -19 10 -11 -5 -26 -22 -33 -37 -18 -38 -45 -41
-58 -8 -9 22 -15 26 -35 21 -23 -6 -25 -3 -25 24 0 37 -5 37 -35 3 -19 -23
-23 -37 -21 -76 2 -34 -1 -47 -9 -43 -7 2 -17 0 -23 -6 -12 -12 -18 -3 -24 37
-3 21 -44 46 -62 39 -7 -3 -20 -18 -30 -34 -24 -42 -53 -40 -61 4 -8 42 -3 71
11 71 6 0 26 12 45 28 35 29 46 32 68 18 18 -12 51 4 51 23 0 9 20 15 62 19
34 3 64 10 66 16 2 6 20 13 40 17 20 4 46 13 57 21 11 8 29 11 40 7 11 -3 39
-9 63 -11z m1551 -72 c17 -11 7 -41 -14 -41 -9 0 -13 -5 -10 -11 4 -6 13 -8
20 -5 7 2 21 -4 31 -15 9 -10 22 -19 29 -19 6 0 12 -7 12 -16 0 -11 -6 -14
-21 -9 -32 9 -50 13 -63 14 -7 1 -20 15 -28 32 -9 17 -29 35 -46 41 -16 5 -29
16 -29 24 0 16 95 20 119 5z m-1369 -49 c0 -10 5 -23 10 -28 8 -8 6 -15 -5
-24 -8 -7 -15 -20 -14 -29 0 -12 4 -11 16 7 8 12 24 22 34 22 15 0 16 -5 9
-29 -7 -25 -5 -30 13 -35 12 -3 35 1 52 10 27 14 31 13 43 -3 7 -10 11 -26 8
-37 -3 -10 2 -25 10 -33 12 -12 17 -12 36 1 12 9 40 16 60 16 32 0 40 -4 49
-27 5 -14 6 -29 2 -32 -4 -3 -9 -18 -11 -33 -2 -25 0 -27 67 -39 58 -10 71
-15 73 -33 2 -12 12 -22 23 -24 41 -6 75 -25 91 -49 15 -24 15 -27 0 -35 -26
-14 -9 -28 35 -28 37 0 39 -1 29 -21 -14 -25 -12 -27 23 -31 15 -2 27 -7 27
-11 0 -4 0 -15 0 -24 0 -17 -49 -53 -71 -53 -16 0 -10 39 7 48 9 5 14 15 10
21 -5 8 -17 4 -38 -14 -32 -27 -65 -31 -165 -19 -48 6 -52 9 -57 38 -5 24 -15
35 -49 51 -23 10 -43 20 -45 21 -2 1 1 11 7 21 18 34 -43 73 -114 73 -39 0
-51 -5 -74 -30 -33 -36 -43 -30 -35 22 5 27 3 38 -6 38 -12 0 -11 15 4 51 5
12 1 18 -18 21 -17 4 -23 1 -19 -9 3 -7 -2 -13 -11 -13 -18 0 -21 21 -5 37 5
5 12 29 14 52 3 36 1 41 -13 37 -9 -3 -24 -1 -32 4 -8 5 -10 10 -4 10 18 0 4
49 -17 60 -20 11 -17 29 13 73 22 31 38 35 38 9z m1410 8 c0 -5 -7 -10 -15
-10 -8 0 -15 5 -15 10 0 6 7 10 15 10 8 0 15 -4 15 -10z m-2114 -94 c-8 -41
-11 -44 -68 -55 l-44 -8 4 29 c2 15 10 28 18 28 7 0 11 6 8 14 -3 8 -1 17 5
21 7 3 8 0 5 -9 -9 -24 28 -20 49 5 24 27 31 19 23 -25z m304 20 c0 -11 -19
-15 -25 -6 -3 5 1 10 9 10 9 0 16 -2 16 -4z m1445 -16 c3 -5 1 -10 -4 -10 -6
0 -11 5 -11 10 0 6 2 10 4 10 3 0 8 -4 11 -10z m-385 -14 c0 -11 -80 -66 -96
-66 -12 0 76 74 94 79 1 1 2 -5 2 -13z m418 -18 c-5 -15 -38 -19 -38 -4 0 6 9
12 21 13 11 1 19 -3 17 -9z m-1181 -61 c-9 -15 -11 -30 -6 -45 8 -22 3 -52
-10 -52 -14 0 -10 77 6 119 15 37 19 42 21 23 2 -13 -3 -33 -11 -45z m-879 9
c2 -27 -2 -36 -18 -41 -11 -3 -20 -11 -20 -16 0 -5 -9 -9 -20 -9 -32 0 -27 16
23 71 9 10 14 19 11 19 -3 0 -2 5 1 10 11 17 21 3 23 -34z m832 30 c0 -3 -4
-8 -10 -11 -5 -3 -10 -1 -10 4 0 6 5 11 10 11 6 0 10 -2 10 -4z m-310 -16 c0
-5 -4 -10 -10 -10 -5 0 -10 5 -10 10 0 6 5 10 10 10 6 0 10 -4 10 -10z m1444
-9 c3 -4 -6 -6 -19 -3 -14 2 -25 6 -25 8 0 8 39 4 44 -5z m-1164 -10 c0 -5 -7
-11 -15 -15 -9 -3 -15 0 -15 9 0 8 7 15 15 15 8 0 15 -4 15 -9z m-1250 -11 c0
-5 -4 -10 -10 -10 -5 0 -10 5 -10 10 0 6 5 10 10 10 6 0 10 -4 10 -10z m27
-58 c2 -53 -31 -93 -69 -85 -25 5 -28 10 -28 47 0 34 5 44 28 58 15 10 36 18
47 18 17 0 21 -7 22 -38z m324 -10 c-6 -11 -17 -22 -26 -26 -9 -3 -15 -18 -15
-35 0 -27 -26 -86 -52 -118 -5 -7 -7 -17 -3 -23 3 -5 -1 -10 -9 -10 -9 0 -16
-4 -16 -8 0 -8 -159 -36 -167 -29 -2 3 3 12 12 20 8 9 15 24 15 34 0 10 12 29
25 42 14 13 25 28 25 35 0 6 17 25 37 41 20 17 43 37 52 45 10 8 29 16 44 17
15 1 39 11 54 23 30 23 39 20 24 -8z m299 -43 c-9 -27 -20 -52 -24 -56 -3 -3
-6 -17 -6 -30 0 -20 -22 -66 -40 -83 -15 -15 -35 -67 -35 -93 0 -22 -5 -31
-20 -33 -11 -2 -21 -8 -23 -13 -4 -13 -32 -15 -32 -2 0 5 -9 11 -20 14 -13 3
-20 0 -20 -9 0 -8 -4 -14 -10 -14 -5 0 -10 4 -10 9 0 5 -19 27 -41 49 -36 34
-40 42 -30 60 12 23 116 125 134 131 7 2 17 9 23 15 79 76 115 106 128 106 8
0 18 5 22 11 17 27 19 -15 4 -62z m430 51 c0 -18 -29 -67 -42 -72 -7 -3 -28
-3 -46 -1 l-32 5 42 39 c41 37 78 50 78 29z m-184 -42 c10 -17 -27 -40 -56
-34 -14 2 -34 -2 -44 -10 -21 -15 -46 -19 -46 -6 1 24 35 47 78 53 26 3 50 7
54 8 4 0 10 -4 14 -11z m372 -31 c-32 -26 -35 -39 -12 -58 13 -11 17 -10 25 4
6 9 17 17 24 17 8 0 15 5 15 12 0 6 2 9 5 6 9 -9 -7 -38 -21 -38 -8 0 -14 -4
-14 -9 0 -5 -9 -11 -21 -14 -12 -3 -18 -10 -15 -16 4 -5 2 -12 -4 -16 -5 -3
-10 -13 -10 -22 0 -13 8 -14 40 -9 35 5 40 4 40 -13 0 -31 -50 -36 -125 -12
-35 12 -74 21 -85 21 -29 0 -21 21 13 38 32 15 35 32 7 32 -11 0 -20 5 -20 10
0 13 59 50 80 50 8 1 33 9 55 20 52 25 56 24 23 -3z m-278 -37 c0 -5 -7 -10
-15 -10 -25 0 -53 -33 -51 -59 1 -18 9 -27 28 -32 34 -9 53 11 44 45 -8 33 20
43 44 16 13 -15 17 -31 13 -60 -5 -35 -3 -40 15 -40 11 0 29 -11 40 -25 13
-16 26 -23 36 -19 9 3 24 3 34 -2 22 -10 112 -12 106 -2 -3 5 2 8 10 8 8 0 19
7 24 16 6 11 16 13 35 9 33 -9 36 -26 5 -22 -15 1 -22 -3 -20 -12 2 -8 -2 -27
-9 -43 -13 -31 -8 -45 13 -32 7 5 18 9 24 10 6 1 21 5 33 9 24 7 25 3 9 -42
-9 -26 -19 -34 -45 -39 -18 -3 -33 -10 -33 -15 0 -12 38 -49 50 -49 15 0 12
-40 -2 -41 -7 -1 -27 0 -44 1 -18 1 -35 -3 -39 -9 -10 -17 -33 -13 -54 10 -11
12 -30 27 -43 34 -13 6 -22 17 -21 23 5 21 -35 32 -99 28 -87 -7 -115 -14
-175 -43 -57 -27 -60 -27 -178 5 -38 11 -82 22 -96 26 -29 6 -42 27 -33 51 5
12 10 13 20 4 14 -11 25 7 43 71 5 17 16 27 37 30 16 3 28 9 27 13 -7 18 -2
27 13 27 13 0 15 7 11 35 -3 19 -1 37 4 41 5 3 6 10 3 16 -10 16 16 28 62 28
27 0 48 7 62 21 13 11 30 18 40 15 9 -3 24 -1 32 4 20 13 40 13 40 0z m1400
-10 c0 -5 -7 -10 -15 -10 -8 0 -15 5 -15 10 0 6 7 10 15 10 8 0 15 -4 15 -10z
m308 -91 c39 -8 72 -17 72 -22 0 -9 -17 -7 -110 9 -19 4 -44 13 -55 21 l-20
15 20 -5 c11 -3 53 -11 93 -18z m-1168 -78 c0 -5 -7 -11 -15 -15 -15 -5 -20 5
-8 17 9 10 23 9 23 -2z m-33 -48 c14 -11 12 -14 -12 -23 -15 -6 -32 -13 -37
-17 -6 -3 -5 4 1 16 8 14 8 21 1 21 -5 0 -10 9 -10 21 0 11 4 18 9 14 5 -3 13
0 18 7 5 9 9 7 11 -7 2 -11 11 -25 19 -32z m-1357 -3 c-6 -11 -18 -20 -26 -20
-8 0 -12 -4 -9 -10 3 -5 2 -10 -3 -10 -5 0 -12 9 -15 20 -6 21 15 39 46 40 15
0 16 -3 7 -20z m211 -18 c50 -33 87 -69 103 -100 23 -44 20 -62 -8 -62 -14 0
-27 -4 -30 -9 -9 -13 -89 -21 -103 -9 -7 6 -26 8 -42 6 -17 -2 -28 -1 -25 3 3
5 -1 17 -8 28 -10 16 -10 23 0 33 6 6 12 24 12 39 0 15 7 32 15 39 9 7 13 15
10 18 -6 6 26 31 40 32 6 0 22 -8 36 -18z m183 -37 c-4 -8 -8 -15 -10 -15 -2
0 -4 7 -4 15 0 8 4 15 10 15 5 0 7 -7 4 -15z m41 -46 c-8 -23 -35 -13 -35 12
0 11 6 26 13 33 10 12 13 10 20 -7 4 -11 5 -28 2 -38z m845 -4 c-7 -8 -17 -15
-22 -15 -6 0 -5 7 2 15 7 8 17 15 22 15 6 0 5 -7 -2 -15z m150 -17 c11 6 28
12 37 11 13 0 12 -3 -6 -10 -24 -9 -50 -36 -51 -51 0 -5 11 -8 25 -8 14 0 25
-4 25 -10 0 -5 6 -7 14 -4 20 8 28 -12 11 -26 -19 -16 -92 -7 -113 13 -13 13
-12 16 7 26 25 14 28 40 4 43 -10 0 -23 2 -30 2 -28 3 -23 16 6 16 22 0 30 4
26 13 -4 6 1 3 10 -8 13 -16 19 -18 35 -7z m115 -116 c-3 -46 -35 -57 -35 -12
0 22 5 30 18 30 12 0 18 -7 17 -18z m-235 -12 c0 -5 -11 -10 -25 -10 -14 0
-25 5 -25 10 0 6 11 10 25 10 14 0 25 -4 25 -10z m-1530 -28 c0 -29 48 -86 73
-87 12 0 27 -4 34 -8 7 -4 24 -5 38 -1 19 5 25 2 25 -10 0 -9 5 -16 11 -16 16
0 1 -58 -27 -101 -27 -44 -61 -70 -80 -62 -21 8 -18 -41 6 -87 14 -28 29 -41
48 -45 15 -3 40 -12 55 -20 34 -18 47 -12 47 20 0 13 5 27 10 30 6 3 10 17 10
30 0 35 23 43 139 44 58 1 108 4 112 7 4 2 7 52 7 112 0 59 0 115 1 125 1 15
9 17 56 15 38 -2 54 -7 51 -15 -3 -6 0 -13 6 -15 6 -2 11 -16 11 -31 0 -15 3
-27 7 -27 4 0 10 -17 12 -37 3 -26 -1 -42 -14 -55 -20 -20 -25 -83 -7 -94 14
-8 4 -92 -16 -131 -8 -15 -15 -33 -15 -39 0 -6 -18 -36 -40 -67 -22 -30 -40
-60 -40 -65 0 -6 -16 -25 -35 -43 -19 -19 -35 -39 -35 -46 0 -7 -12 -16 -26
-19 -15 -4 -35 -15 -45 -25 -10 -10 -37 -21 -61 -24 -111 -17 -258 69 -312
181 -10 21 -22 46 -27 55 -4 9 -10 42 -14 75 -4 32 -15 77 -24 99 -20 51 -22
270 -2 330 18 55 61 88 61 47z m1390 -6 c0 -3 -4 -8 -10 -11 -5 -3 -10 -1 -10
4 0 6 5 11 10 11 6 0 10 -2 10 -4z m-300 -105 c0 -50 -11 -77 -48 -120 l-30
-33 -79 7 c-73 6 -115 18 -103 28 25 22 118 81 155 98 26 12 52 30 58 41 7 10
20 18 29 18 14 0 18 -8 18 -39z m493 -342 c33 -15 36 -69 4 -68 -12 0 -33 -2
-47 -5 -47 -10 -55 -10 -102 -2 -37 6 -48 13 -48 26 0 10 -6 20 -12 23 -25 9
-2 15 77 22 44 4 82 9 84 11 7 6 19 5 44 -7z m-978 -519 c3 -5 1 -10 -4 -10
-6 0 -11 5 -11 10 0 6 2 10 4 10 3 0 8 -4 11 -10z"/>
<path d="M5555 6990 c3 -5 8 -10 11 -10 2 0 4 5 4 10 0 6 -5 10 -11 10 -5 0
-7 -4 -4 -10z"/>
<path d="M5140 6589 c0 -5 5 -7 10 -4 6 3 10 8 10 11 0 2 -4 4 -10 4 -5 0 -10
-5 -10 -11z"/>
<path d="M5460 6290 c0 -5 5 -10 10 -10 6 0 10 5 10 10 0 6 -4 10 -10 10 -5 0
-10 -4 -10 -10z"/>
<path d="M4755 5671 c-16 -3 -30 -11 -30 -16 0 -6 -3 -9 -7 -7 -5 1 -8 -7 -8
-18 0 -11 5 -20 10 -20 6 0 10 -6 10 -12 0 -7 18 -32 38 -55 38 -43 72 -56 72
-28 0 8 5 15 11 15 8 0 8 5 -1 15 -10 12 -10 18 0 30 15 18 7 85 -12 97 -15 9
-39 9 -83 -1z"/>
<path d="M4144 7188 c9 -13 13 -28 9 -32 -5 -4 -1 -13 7 -19 9 -7 22 -27 30
-46 7 -19 23 -44 35 -57 24 -26 70 -41 79 -25 4 6 20 11 37 11 26 0 29 3 29
31 0 17 -5 40 -11 52 -9 16 -9 22 0 25 18 6 13 20 -11 28 -13 4 -25 7 -28 6
-3 0 -12 6 -21 14 -9 8 -20 14 -25 12 -12 -3 -110 11 -130 19 -15 6 -15 4 0
-19z"/>
<path d="M7536 6395 c-8 -21 1 -35 20 -35 10 0 14 8 12 22 -4 27 -23 34 -32
13z"/>
<path d="M4070 6252 c-10 -11 -11 -17 -3 -19 7 -3 9 -11 6 -19 -3 -8 -1 -14 4
-14 6 0 16 -18 23 -41 8 -22 18 -43 23 -46 6 -4 8 0 4 9 -3 9 -1 20 5 26 6 6
6 12 -1 16 -6 4 -11 16 -11 26 0 11 -8 33 -18 48 -15 26 -19 28 -32 14z"/>
<path d="M3821 5776 c-14 -16 -5 -42 15 -50 12 -4 14 -1 9 14 -7 23 13 28 33
8 6 -6 14 -10 16 -7 3 2 -10 14 -29 26 -27 18 -35 20 -44 9z"/>
<path d="M3596 5648 c-10 -11 -20 -40 -23 -62 -4 -38 -1 -43 24 -54 24 -10 25
-11 4 -7 -18 3 -21 1 -12 -8 34 -34 -4 -36 -53 -2 -20 14 -39 25 -42 25 -6 0
25 -36 66 -75 18 -18 24 -33 22 -58 -2 -26 2 -36 15 -39 10 -3 22 -7 28 -9 5
-2 10 5 10 16 0 22 42 40 117 50 55 7 99 37 82 55 -9 9 -17 9 -32 1 -33 -17
-161 -16 -179 2 -14 13 -13 16 7 22 18 6 20 9 9 16 -10 6 -6 9 14 9 22 0 27 5
28 28 1 15 3 38 5 52 5 42 -4 55 -39 57 -23 2 -38 -4 -51 -19z"/>
<path d="M4303 5415 c-33 -23 -121 -44 -159 -38 -38 6 -74 -11 -74 -36 0 -22
-40 -51 -70 -51 -12 0 -25 -10 -32 -25 -17 -39 4 -92 62 -155 27 -30 50 -62
50 -72 0 -10 4 -18 8 -18 5 0 9 33 9 73 0 115 46 189 139 226 40 16 97 74 92
95 -3 15 -5 15 -25 1z"/>
<path d="M4080 5006 c0 -10 28 -13 41 -5 10 6 7 9 -13 9 -16 0 -28 -2 -28 -4z"/>
<path d="M4069 4983 c-24 -6 -43 -52 -25 -59 24 -9 61 0 64 16 4 21 -20 47
-39 43z"/>
<path d="M4128 4920 c-6 -39 26 -70 70 -70 20 0 35 -6 38 -15 4 -8 14 -15 24
-15 11 0 22 -4 25 -10 3 -5 15 -10 25 -10 11 0 24 -9 30 -20 6 -11 17 -20 25
-20 8 0 26 -11 41 -25 15 -14 33 -25 40 -25 8 0 14 -6 14 -14 0 -8 13 -17 30
-21 16 -4 33 -11 36 -17 4 -5 21 -16 40 -24 45 -19 83 -5 80 29 -5 42 -53 94
-93 102 -39 7 -115 45 -148 74 -11 10 -42 24 -68 31 -27 7 -51 19 -54 27 -6
16 -63 18 -63 2 0 -6 -12 3 -27 20 -35 40 -59 40 -65 1z"/>
<path d="M8615 4369 c-3 -3 4 -9 15 -12 12 -3 20 0 20 7 0 13 -28 18 -35 5z"/>
<path d="M8000 4065 c-136 -21 -167 -36 -130 -62 14 -10 45 -12 121 -8 56 3
106 8 111 11 5 3 24 0 43 -6 51 -17 71 -7 71 35 0 19 0 35 0 36 -6 8 -153 3
-216 -6z"/>
<path d="M8268 4003 c7 -3 16 -2 19 1 4 3 -2 6 -13 5 -11 0 -14 -3 -6 -6z"/>
<path d="M8482 3791 c0 -25 4 -53 9 -63 5 -9 10 -30 11 -45 1 -17 22 -51 53
-88 71 -84 91 -137 43 -120 -7 3 -20 1 -28 -5 -12 -7 -9 -16 17 -52 17 -24 38
-44 47 -46 14 -3 16 19 16 207 0 191 -2 211 -17 211 -9 0 -26 8 -37 19 -12 10
-42 21 -67 23 l-46 5 -1 -46z"/>
<path d="M7218 3577 c-44 -12 -50 -27 -10 -26 41 1 75 13 80 27 4 14 -18 14
-70 -1z"/>
<path d="M4728 3533 c7 -3 16 -2 19 1 4 3 -2 6 -13 5 -11 0 -14 -3 -6 -6z"/>
<path d="M4815 3300 c-3 -5 -1 -10 4 -10 6 0 11 5 11 10 0 6 -2 10 -4 10 -3 0
-8 -4 -11 -10z"/>
<path d="M4477 3253 c-11 -19 -16 -99 -8 -112 16 -24 41 6 41 48 -1 35 -23 80
-33 64z"/>
<path d="M4775 3061 c-8 -15 3 -31 21 -31 9 0 14 7 12 17 -4 20 -24 28 -33 14z"/>
<path d="M5070 3046 c0 -30 15 -42 24 -20 10 27 7 44 -9 44 -9 0 -15 -9 -15
-24z"/>
<path d="M4835 3041 c-3 -6 3 -15 14 -21 21 -11 37 2 26 20 -8 13 -32 13 -40
1z"/>
<path d="M3085 2951 c-10 -18 41 -61 71 -61 l29 1 -30 25 c-43 36 -63 46 -70
35z"/>
<path d="M6320 2919 c0 -5 5 -7 10 -4 6 3 10 8 10 11 0 2 -4 4 -10 4 -5 0 -10
-5 -10 -11z"/>
<path d="M2800 2515 c0 -21 5 -25 32 -25 l31 0 -23 25 c-13 14 -27 25 -32 25
-4 0 -8 -11 -8 -25z"/>
<path d="M2800 2370 c0 -22 5 -40 10 -40 6 0 10 18 10 40 0 22 -4 40 -10 40
-5 0 -10 -18 -10 -40z"/>
<path d="M2880 2290 c0 -5 7 -10 15 -10 8 0 15 5 15 10 0 6 -7 10 -15 10 -8 0
-15 -4 -15 -10z"/>
<path d="M7550 2120 c-11 -7 -12 -12 -3 -21 13 -13 33 -4 33 17 0 16 -9 18
-30 4z"/>
<path d="M7760 1980 c0 -5 7 -10 16 -10 8 0 12 5 9 10 -3 6 -10 10 -16 10 -5
0 -9 -4 -9 -10z"/>
<path d="M7607 1974 c-9 -10 2 -24 18 -24 9 0 12 6 9 15 -6 16 -17 19 -27 9z"/>
<path d="M6205 1809 c-4 -6 -10 -47 -14 -92 -4 -48 -12 -82 -19 -85 -7 -2 -12
-15 -12 -28 0 -21 5 -24 36 -24 20 0 52 7 70 16 28 14 40 15 61 5 34 -16 37
-10 18 34 -15 37 -16 37 -34 21 -11 -10 -28 -16 -38 -14 -15 3 -18 13 -17 71
0 37 -3 67 -7 67 -4 0 -11 9 -14 20 -7 22 -20 26 -30 9z"/>
<path d="M8485 520 c-3 -5 -1 -10 4 -10 6 0 11 5 11 10 0 6 -2 10 -4 10 -3 0
-8 -4 -11 -10z"/>
<path d="M8000 20 c0 -5 7 -10 16 -10 8 0 12 5 9 10 -3 6 -10 10 -16 10 -5 0
-9 -4 -9 -10z"/>
</g>
</svg>
