<?xml version="1.0" standalone="no"?>
<!DOCTYPE svg PUBLIC "-//W3C//DTD SVG 20010904//EN"
 "http://www.w3.org/TR/2001/REC-SVG-20010904/DTD/svg10.dtd">
<svg version="1.0" xmlns="http://www.w3.org/2000/svg"
 width="865.000000pt" height="865.000000pt" viewBox="0 0 865.000000 865.000000"
 preserveAspectRatio="xMidYMid meet">
<metadata>
Created by potrace 1.11, written by Peter Selinger 2001-2013
</metadata>
<g transform="translate(0.000000,865.000000) scale(0.100000,-0.100000)"
fill="#000000" stroke="none">
<path d="M0 4325 l0 -4325 1680 0 c924 0 1680 2 1680 4 0 6 -214 159 -260 186
-8 5 -12 11 -9 15 7 6 142 -81 147 -96 2 -5 10 -9 17 -9 8 0 20 -6 27 -13 7
-7 36 -29 65 -49 l52 -37 493 0 c271 0 484 4 473 8 -15 6 -10 9 24 15 47 7 65
1 41 -14 -9 -6 332 -9 900 -9 503 0 909 3 903 6 -7 2 -25 17 -41 31 -16 15
-47 37 -68 48 -169 92 -254 140 -307 172 -55 34 -176 92 -190 92 -3 0 -18 12
-35 28 -16 15 -65 45 -107 67 -43 22 -96 55 -119 72 -22 18 -46 33 -53 33 -6
0 -13 4 -15 8 -1 5 -28 22 -58 39 -30 17 -83 47 -117 67 -134 77 -185 106
-189 106 -3 0 -49 27 -103 60 -55 33 -102 60 -106 60 -3 0 -25 12 -48 28 -23
15 -64 38 -91 52 -27 13 -43 26 -37 28 15 5 66 -20 143 -71 14 -9 66 -38 115
-63 48 -26 94 -51 102 -57 7 -6 62 -36 121 -67 59 -30 138 -73 176 -95 66 -38
96 -53 181 -90 79 -35 144 -68 149 -76 3 -5 22 -16 42 -26 20 -9 50 -26 67
-37 16 -11 63 -38 105 -60 41 -21 86 -46 100 -56 14 -9 41 -23 60 -30 19 -8
56 -27 81 -42 25 -15 49 -28 52 -28 3 0 23 -11 43 -25 20 -14 43 -25 51 -25 8
0 23 -8 34 -18 10 -11 32 -25 47 -33 15 -8 62 -33 105 -56 l77 -43 694 0 c673
0 694 1 699 19 5 22 47 49 47 31 0 -6 5 -8 10 -5 13 8 13 45 0 45 -21 0 -9 26
20 42 39 22 39 54 1 76 -20 11 -31 27 -34 48 -6 36 1 74 13 74 4 0 10 14 14
31 4 21 10 29 20 26 9 -4 16 3 21 20 7 30 -11 56 -21 30 -3 -9 -10 -14 -15
-11 -14 8 -10 78 5 100 14 18 15 18 28 2 12 -17 15 -17 46 2 22 13 32 26 28
35 -3 10 8 22 35 35 22 12 42 27 46 35 7 19 23 19 23 1 0 -12 27 -16 143 -20
78 -2 166 -8 195 -11 40 -5 52 -4 52 7 0 11 2 11 9 -1 5 -8 14 -10 21 -6 10 6
8 12 -6 23 -17 13 -15 14 21 7 44 -7 57 -15 37 -22 -26 -10 2 -23 49 -23 l49
0 0 1330 c0 810 -4 1330 -9 1330 -5 0 -12 8 -14 17 -4 17 -5 17 -6 1 -1 -14
-10 -18 -45 -18 -41 0 -63 16 -58 42 1 4 -9 7 -22 6 -14 -1 -22 -6 -20 -10 3
-4 0 -8 -6 -8 -6 0 -10 -20 -9 -52 2 -45 7 -56 41 -88 21 -21 38 -44 38 -53 0
-22 -22 -36 -45 -27 -11 4 -25 5 -32 3 -20 -8 -87 18 -103 38 -9 11 -32 22
-53 26 -32 5 -37 3 -37 -13 0 -26 38 -125 56 -145 17 -19 18 -39 2 -39 -9 0
-9 -3 -1 -11 12 -12 2 -61 -18 -85 -6 -8 -9 -23 -6 -34 4 -15 0 -20 -13 -20
-25 0 -51 11 -46 19 3 4 -10 5 -27 3 -18 -2 -54 4 -82 12 -38 12 -51 13 -57 3
-4 -7 0 -15 11 -19 17 -6 34 -47 35 -88 1 -8 11 -16 24 -18 45 -7 20 -22 -36
-22 -64 0 -82 -11 -82 -50 0 -15 -3 -29 -6 -33 -3 -3 -7 -27 -9 -54 -2 -26 -8
-59 -13 -73 l-10 -25 -11 28 c-15 38 -27 34 -51 -19 -21 -46 -19 -84 4 -84 23
0 122 -93 129 -122 7 -26 -31 -48 -95 -58 -29 -4 -47 -8 -39 -9 11 -1 11 -4 1
-16 -8 -10 -14 -46 -14 -93 -1 -42 -4 -82 -8 -88 -4 -6 -30 -14 -58 -18 -44
-6 -49 -9 -47 -29 2 -20 -3 -22 -43 -22 -25 0 -45 -5 -46 -10 -2 -18 8 -45 16
-45 4 0 10 -14 12 -31 7 -46 -23 -58 -65 -26 -35 26 -84 40 -93 25 -3 -5 -19
-6 -35 -3 -39 9 -46 -12 -20 -61 27 -50 26 -60 -5 -80 -29 -19 -54 -63 -54
-95 0 -18 -4 -20 -27 -14 -68 17 -162 17 -211 1 -66 -22 -134 -11 -242 37 -78
36 -137 44 -219 30 -40 -7 -79 -17 -87 -24 -7 -6 -26 -8 -43 -4 -33 7 -131
-18 -177 -46 -17 -11 -40 -19 -51 -19 -21 0 -43 -36 -43 -70 0 -25 -2 -25 -51
0 -54 26 -192 53 -229 45 -31 -7 -162 28 -190 50 -8 7 -23 15 -33 18 -10 4
-15 11 -12 17 3 5 0 10 -7 10 -8 0 -22 -14 -31 -30 -24 -39 -56 -39 -96 0 -16
17 -56 52 -87 79 -51 44 -59 56 -85 132 -35 103 -35 136 -5 219 60 164 120
244 236 316 113 70 149 79 283 76 74 -1 117 1 117 8 0 11 64 40 90 40 18 0 70
91 70 124 0 9 6 29 14 44 12 23 11 34 -1 77 -8 28 -17 65 -20 83 -3 17 -9 32
-14 32 -5 0 -9 15 -9 34 0 18 -3 54 -6 80 l-7 46 -43 0 c-23 0 -46 4 -49 10
-9 14 -65 0 -110 -29 -22 -14 -44 -25 -49 -26 -5 0 -12 -9 -17 -20 -10 -27
-12 -15 -13 130 l-1 120 -30 0 c-19 0 -29 5 -27 13 1 6 -7 12 -17 12 -11 0
-23 5 -26 10 -3 5 -16 10 -28 10 -12 0 -17 4 -12 8 12 8 13 116 1 155 -5 17
-15 27 -27 27 -10 0 -25 10 -33 23 -13 21 -26 154 -31 320 -1 42 -4 80 -8 83
-11 11 -246 11 -251 0 -3 -7 -5 -6 -5 2 -1 18 -42 15 -56 -5 -12 -16 -15 -16
-34 7 -12 15 -20 20 -21 11 0 -9 -4 -10 -12 -4 -7 5 -35 11 -61 12 -26 1 -73
13 -103 27 -30 13 -69 24 -87 24 -18 0 -41 6 -52 14 -13 8 -67 16 -145 20
-100 6 -128 11 -140 24 -24 28 -87 52 -175 67 -22 4 -53 12 -70 20 -16 7 -50
18 -75 26 -25 7 -56 20 -68 28 -15 9 -47 14 -88 13 -54 0 -66 3 -75 19 -5 11
-14 17 -20 14 -5 -4 -9 -1 -9 4 0 19 -28 12 -35 -9 -3 -11 -11 -20 -16 -20 -5
0 -9 -7 -9 -15 0 -8 -9 -23 -20 -32 -11 -10 -20 -23 -20 -29 0 -7 -20 -33 -45
-60 -25 -26 -45 -53 -45 -59 0 -7 -7 -18 -15 -25 -24 -20 -18 -35 22 -63 21
-15 61 -42 88 -62 28 -19 57 -35 66 -35 9 0 24 -9 34 -20 10 -11 26 -20 35
-20 10 0 23 -7 30 -15 8 -9 30 -15 56 -15 32 0 44 -4 44 -15 0 -9 23 -22 63
-34 34 -11 61 -24 60 -29 -3 -14 38 -21 124 -20 57 0 73 3 73 15 0 11 9 13 48
7 60 -8 62 -10 62 -42 0 -99 4 -122 22 -122 10 0 18 -5 18 -12 0 -23 42 -99
61 -109 10 -5 19 -15 19 -22 0 -19 73 -87 93 -87 10 0 22 -11 27 -24 4 -13 25
-33 44 -46 20 -12 36 -25 36 -30 0 -15 -30 -80 -38 -80 -4 0 -12 -10 -17 -22
-14 -29 -79 -51 -135 -44 -25 3 -56 7 -68 8 -20 3 -27 -5 -45 -47 -11 -27 -20
-66 -21 -85 -1 -31 -4 -35 -26 -33 -55 6 -90 14 -85 22 2 5 -22 20 -55 35 -56
26 -84 46 -61 46 12 0 15 42 5 53 -3 3 -18 1 -33 -5 -49 -20 -104 -26 -128
-15 -26 12 -26 11 -14 53 6 20 4 48 -4 79 -11 45 -14 49 -59 63 -29 10 -56 27
-69 44 -11 15 -27 28 -34 28 -15 0 -34 -40 -40 -85 -5 -41 -29 -62 -88 -77
-27 -7 -61 -20 -74 -30 -13 -10 -30 -18 -37 -18 -12 0 -36 -34 -50 -73 -3 -9
-10 -17 -15 -17 -5 0 -9 -9 -9 -20 0 -29 -47 -48 -118 -49 -34 0 -70 -5 -82
-11 -13 -7 -55 -9 -116 -5 -93 6 -95 6 -85 -14 6 -11 11 -36 11 -55 0 -23 7
-43 20 -56 11 -11 17 -26 13 -35 -5 -15 13 -63 29 -75 12 -9 18 -130 6 -130
-6 0 -29 -9 -52 -19 -69 -32 -181 -71 -215 -76 -54 -8 -270 -48 -326 -60 -33
-8 -82 -17 -110 -20 -27 -4 -95 -18 -150 -30 -149 -35 -179 -40 -171 -26 4 7
2 9 -7 5 -9 -3 -22 4 -30 17 -13 18 -22 20 -51 15 -29 -6 -36 -4 -36 10 0 16
-55 74 -71 74 -5 0 -9 18 -9 40 l0 40 40 0 c22 0 40 5 40 10 0 6 17 10 38 10
38 0 102 31 102 50 0 6 -29 10 -70 10 -56 0 -70 3 -70 15 0 12 -16 15 -80 15
-75 0 -80 1 -80 21 0 27 -56 83 -76 75 -32 -12 -44 5 -44 60 0 30 5 54 10 54
6 0 10 18 10 40 0 22 5 40 10 40 6 0 10 18 10 40 0 30 4 40 16 40 9 0 14 6 12
13 -3 7 -26 13 -56 15 -48 3 -52 5 -52 28 0 27 -27 34 -36 9 -7 -16 -44 -21
-44 -5 0 5 -6 7 -14 4 -11 -4 -14 1 -12 23 4 28 4 28 65 25 45 -3 65 1 77 12
8 9 34 17 57 17 23 1 54 3 69 5 31 3 98 33 98 43 0 10 -48 25 -160 51 -206 47
-279 75 -297 112 -6 13 -16 57 -22 98 -24 164 -43 291 -61 405 -11 66 -24 162
-30 214 -6 51 -12 96 -14 100 -2 3 -9 58 -16 121 -6 63 -18 135 -25 160 -7 25
-18 86 -25 135 -10 84 -42 325 -76 565 -8 58 -21 141 -29 185 -7 44 -16 105
-19 135 -4 30 -10 75 -15 100 -12 54 -40 265 -52 375 -11 110 -26 212 -32 222
-3 5 -8 38 -11 73 -4 36 -11 94 -16 130 -6 36 -15 94 -20 130 -6 36 -12 83
-15 105 -2 22 -9 72 -15 110 -32 216 -41 274 -50 315 -5 25 -12 92 -15 150 -4
58 -13 136 -21 173 -8 38 -14 82 -14 98 0 16 -6 62 -14 102 -20 106 -36 206
-40 257 -2 25 -11 97 -20 160 -9 63 -23 169 -32 235 -9 66 -18 127 -22 135 -3
8 -4 18 -4 22 1 4 -3 40 -8 80 -8 61 -13 138 -19 296 l-1 22 -605 0 -605 0 0
-4325z m4175 -455 c3 -5 1 -10 -4 -10 -6 0 -11 5 -11 10 0 6 2 10 4 10 3 0 8
-4 11 -10z m85 -74 c0 -2 -7 -6 -15 -10 -8 -3 -15 -1 -15 4 0 6 7 10 15 10 8
0 15 -2 15 -4z m1197 -343 c-2 -16 -4 -3 -4 27 0 30 2 43 4 28 2 -16 2 -40 0
-55z m-220 -198 c8 -23 -3 -29 -26 -13 -21 15 -18 28 6 28 7 0 16 -7 20 -15z
m106 -47 c-8 -46 -13 -48 -13 -5 0 21 4 37 10 37 5 0 7 -14 3 -32z m202 3 c3
-6 -7 -9 -22 -7 -16 1 -45 -6 -65 -16 -38 -18 -38 -19 -38 -78 0 -32 -4 -61
-8 -64 -10 -6 -10 -2 -13 65 -1 30 4 57 17 77 17 29 22 32 71 32 28 0 54 -4
58 -9z m-212 -90 c-13 -35 -25 -40 -71 -35 -50 6 -62 10 -62 24 0 5 16 4 35
-1 41 -12 70 0 80 32 5 16 9 18 15 9 5 -7 6 -20 3 -29z m323 -72 c13 -15 13
-21 -2 -53 -10 -20 -21 -36 -26 -36 -12 0 -10 8 7 33 13 20 13 26 0 51 -8 16
-15 38 -14 50 0 19 1 19 10 -4 6 -13 17 -32 25 -41z m144 19 c0 -38 -11 -66
-27 -72 -12 -5 -13 -2 -7 11 4 10 8 30 9 46 3 36 3 37 15 37 6 0 10 -10 10
-22z m-230 -3 c0 -16 -9 -19 -34 -9 -25 9 -19 24 9 24 16 0 25 -6 25 -15z
m-130 -93 c0 -12 -3 -12 -15 -2 -8 7 -15 22 -15 34 1 21 1 21 15 2 8 -11 15
-26 15 -34z m113 -12 c-6 -6 -43 38 -43 52 0 5 11 -4 24 -19 13 -15 22 -30 19
-33z m193 -34 c-3 -18 -13 -41 -21 -52 -14 -18 -15 -16 -9 21 9 54 25 94 31
77 3 -7 2 -28 -1 -46z m-3506 -366 c0 -5 -2 -10 -4 -10 -3 0 -8 5 -11 10 -3 6
-1 10 4 10 6 0 11 -4 11 -10z m1324 -228 c-6 -4 -13 -15 -17 -24 -3 -10 -14
-18 -24 -18 -16 0 -16 -1 -1 -16 12 -13 13 -21 5 -44 -8 -22 -22 -32 -66 -45
-72 -23 -181 -75 -181 -87 0 -5 -5 -6 -11 -3 -6 4 -19 -2 -30 -14 -17 -18 -31
-21 -109 -21 -53 0 -90 -4 -90 -10 0 -5 -18 -10 -40 -10 -29 0 -40 4 -40 15 0
8 -4 15 -10 15 -5 0 -10 5 -10 10 0 6 11 10 25 10 23 0 25 4 25 40 0 22 5 40
11 40 5 0 7 5 4 10 -11 18 -45 -9 -45 -35 0 -30 -11 -32 -35 -5 -20 23 -19 25
15 39 l25 10 -23 0 c-39 1 -16 17 45 30 32 7 69 17 83 21 33 11 94 25 215 51
55 11 125 27 155 34 60 14 141 19 124 7z m-1410 -92 c14 -5 26 -14 26 -20 0
-17 -40 -11 -62 10 -18 16 -19 20 -6 20 9 0 28 -4 42 -10z m406 -35 c0 -17 -2
-18 -25 -9 -13 5 -14 8 -3 15 19 13 28 11 28 -6z m320 -14 c0 -5 -9 -13 -20
-16 -11 -3 -20 -11 -20 -16 0 -12 -67 -12 -75 0 -3 6 11 13 32 17 21 4 45 10
53 15 20 11 30 11 30 0z m-455 -107 c44 -25 98 -56 119 -68 40 -21 58 -46 34
-46 -26 0 -278 138 -278 153 0 19 53 3 125 -39z m-63 -131 c19 -17 25 -39 8
-28 -5 3 -18 1 -29 -4 -13 -7 -29 -7 -50 0 -39 14 -39 22 2 36 46 15 49 15 69
-4z m-110 -304 c-4 -4 -22 -10 -40 -14 -29 -6 -32 -5 -30 17 2 13 7 26 13 30
11 8 68 -24 57 -33z m341 -198 c3 -14 11 -18 26 -14 12 3 21 1 21 -5 0 -5 -19
-15 -42 -21 -24 -7 -49 -15 -56 -18 -8 -3 -16 4 -19 17 -4 15 -11 20 -24 17
-11 -3 -19 0 -19 8 0 6 19 17 43 22 61 15 64 15 70 -6z m4242 -51 c4 -6 -11
-10 -39 -10 -25 0 -48 5 -51 10 -4 6 11 10 39 10 25 0 48 -4 51 -10z m-2750
-140 c3 -6 -1 -7 -9 -4 -18 7 -21 14 -7 14 6 0 13 -4 16 -10z m40 -20 c3 -6
-1 -7 -9 -4 -18 7 -21 14 -7 14 6 0 13 -4 16 -10z m-1101 -40 c39 -15 32 -24
-33 -42 -53 -14 -62 -14 -81 -1 -12 8 -19 20 -17 26 7 23 88 34 131 17z m1391
-120 c3 -5 1 -10 -4 -10 -6 0 -11 5 -11 10 0 6 2 10 4 10 3 0 8 -4 11 -10z
m45 -30 c0 -5 -7 -7 -15 -4 -8 4 -15 8 -15 10 0 2 7 4 15 4 8 0 15 -4 15 -10z
m70 -30 c0 -13 -20 -13 -40 0 -12 8 -9 10 13 10 15 0 27 -4 27 -10z m-1070
-94 c0 -17 -51 -56 -74 -56 -9 0 -13 6 -10 14 4 10 -3 16 -21 18 -46 6 -27 23
32 29 32 3 61 6 66 7 4 1 7 -4 7 -12z m-825 -18 c14 -6 25 -17 25 -24 0 -30
-97 -56 -144 -38 -20 8 -21 44 -1 44 8 0 15 -4 15 -10 0 -5 7 -10 16 -10 11 0
13 6 9 19 -4 15 0 21 17 24 13 2 26 5 30 6 4 0 19 -4 33 -11z m-210 -236 c-3
-3 -11 0 -18 7 -9 10 -8 11 6 5 10 -3 15 -9 12 -12z m1529 -48 c3 -7 -5 -19
-18 -27 -51 -34 -136 -25 -136 15 0 24 17 23 30 -2 12 -23 28 -25 65 -8 30 13
33 28 5 28 -19 0 -26 11 -14 22 8 9 63 -14 68 -28z m4473 30 c-3 -3 -12 -4
-19 -1 -8 3 -5 6 6 6 11 1 17 -2 13 -5z m-5917 -18 c0 -11 -19 -15 -25 -6 -3
5 1 10 9 10 9 0 16 -2 16 -4z m40 0 c0 -11 -19 -15 -25 -6 -3 5 1 10 9 10 9 0
16 -2 16 -4z m2448 -21 c11 -14 24 -25 29 -23 19 5 74 -15 85 -31 7 -10 38
-31 68 -47 30 -16 57 -32 60 -35 3 -4 15 -9 28 -13 12 -4 22 -11 22 -16 0 -15
-21 -23 -33 -11 -6 6 -17 11 -25 11 -8 0 -28 10 -45 23 -18 12 -49 30 -69 39
-21 9 -38 22 -38 28 0 5 -8 10 -18 10 -11 0 -27 9 -37 20 -10 11 -23 20 -30
20 -7 0 -20 9 -29 19 -10 11 -24 17 -32 14 -8 -3 -14 0 -14 6 0 22 58 12 78
-14z m-1963 -25 c4 -6 21 -8 41 -4 51 9 42 -11 -13 -30 -57 -20 -84 -20 -109
-2 -25 19 -9 34 17 17 20 -12 33 -9 35 10 3 17 4 19 13 19 6 0 13 -5 16 -10z
m1717 -33 c7 -8 26 -17 41 -21 32 -8 27 -26 -8 -26 -13 0 -27 -4 -30 -10 -11
-17 -37 -11 -61 15 -22 24 -22 25 -4 25 11 0 20 7 20 15 0 19 24 20 42 2z
m-2027 -87 c3 -6 -1 -7 -9 -4 -18 7 -21 14 -7 14 6 0 13 -4 16 -10z m2605 -46
c0 -22 -2 -24 -14 -14 -8 6 -12 18 -9 26 9 23 23 16 23 -12z m55 -24 c-3 -5
-16 -10 -28 -10 -18 0 -19 2 -7 10 20 13 43 13 35 0z m-962 -80 c3 -14 14 -20
32 -20 15 0 24 -4 20 -10 -3 -5 -21 -10 -39 -10 -19 0 -39 -7 -46 -15 -7 -8
-16 -15 -21 -15 -5 0 -9 7 -9 15 0 10 -10 15 -31 15 -20 0 -29 4 -26 13 2 6
18 12 35 12 17 0 39 8 49 18 22 22 29 22 36 -3z m-1898 -10 c-6 -18 -3 -19 27
-14 29 6 31 5 18 -9 -8 -8 -39 -22 -68 -32 -49 -16 -55 -16 -77 -1 -14 9 -25
23 -25 30 0 18 51 38 118 45 9 1 11 -6 7 -19z m495 6 c-18 -18 -11 -44 20 -69
17 -14 30 -27 30 -29 0 -2 -18 -4 -40 -4 -32 -1 -38 1 -29 12 12 15 -4 54 -24
54 -8 0 -7 4 2 9 12 8 9 11 -12 16 -41 11 -32 20 18 21 32 1 43 -2 35 -10z
m555 -38 c40 -18 26 -39 -39 -61 l-58 -19 -27 26 -26 27 24 20 c27 22 86 25
126 7z m455 -54 c0 -2 -9 0 -20 6 -11 6 -20 13 -20 16 0 2 9 0 20 -6 11 -6 20
-13 20 -16z m1620 17 c0 -5 10 -11 22 -13 12 -2 28 -14 34 -27 10 -20 13 -21
21 -7 7 14 12 12 36 -10 15 -14 32 -22 37 -19 6 4 17 -1 26 -9 8 -9 25 -16 37
-16 26 0 50 -14 45 -26 -1 -5 7 -10 20 -12 25 -4 30 -27 7 -36 -17 -6 -38 2
-104 39 -24 14 -49 25 -54 25 -6 0 -17 7 -26 15 -23 23 -86 62 -110 70 -21 6
-26 16 -14 28 9 10 23 8 23 -2z m-217 -123 c28 -10 34 -22 17 -33 -6 -3 -22 3
-36 14 -15 12 -33 21 -41 21 -8 0 -11 5 -8 11 4 6 14 7 24 4 9 -4 28 -12 44
-17z"/>
<path d="M2590 880 c0 -5 4 -10 9 -10 6 0 13 5 16 10 3 6 -1 10 -9 10 -9 0
-16 -4 -16 -10z"/>
<path d="M2440 280 c0 -5 5 -10 10 -10 6 0 10 5 10 10 0 6 -4 10 -10 10 -5 0
-10 -4 -10 -10z"/>
<path d="M3483 263 c-20 -8 -15 -33 6 -33 31 0 73 19 66 30 -6 10 -50 12 -72
3z"/>
<path d="M7555 7614 c-27 -14 -59 -34 -70 -44 -11 -10 -35 -25 -53 -34 -18
-10 -41 -25 -52 -34 -10 -9 -83 -75 -163 -147 -80 -71 -148 -138 -152 -147 -3
-10 -11 -18 -17 -18 -5 0 -45 -35 -87 -77 -91 -92 -172 -163 -186 -163 -5 0
-24 -15 -42 -33 -18 -18 -45 -40 -60 -48 -15 -7 -34 -22 -41 -31 -7 -10 -19
-18 -26 -18 -7 0 -21 -9 -31 -20 -10 -11 -24 -20 -32 -20 -19 0 31 49 75 75
17 11 32 23 32 27 0 4 5 8 12 8 6 0 28 17 47 38 20 21 55 50 77 65 41 27 157
137 152 143 -2 1 -35 -2 -73 -7 -39 -6 -106 -14 -150 -18 -44 -5 -106 -18
-137 -29 -49 -18 -66 -19 -110 -11 -29 6 -84 14 -123 19 -38 5 -83 11 -100 15
-16 3 -70 8 -120 10 -113 5 -162 13 -168 28 -3 7 -31 18 -63 24 -106 21 -133
23 -148 7 -14 -13 -85 -12 -108 2 -5 3 -15 0 -23 -6 -8 -7 -15 -8 -15 -3 0 5
-12 8 -27 6 -48 -5 -123 -27 -123 -36 0 -4 -5 -5 -10 -2 -6 3 -13 -1 -16 -10
-4 -9 -13 -13 -24 -10 -9 3 -23 -1 -30 -10 -8 -10 -30 -15 -64 -15 -40 0 -54
4 -64 20 -12 20 -42 28 -42 11 0 -5 -14 -11 -31 -15 -17 -3 -28 -10 -24 -16 4
-6 -5 -10 -19 -10 -42 0 -66 -33 -66 -90 0 -45 -3 -52 -27 -62 -16 -7 -36 -18
-45 -26 -10 -9 -18 -12 -18 -8 0 8 -58 -23 -78 -41 -7 -7 -24 -13 -37 -13 -15
0 -31 -10 -41 -25 -9 -14 -21 -22 -26 -19 -5 4 -23 -4 -40 -16 -25 -19 -33
-20 -58 -10 -46 19 -52 109 -6 111 40 1 58 8 80 28 12 12 30 21 39 21 22 0 22
26 0 38 -12 7 -3 8 29 5 41 -5 46 -3 51 18 14 51 11 54 -53 55 -41 1 -61 -3
-64 -13 -3 -7 -20 -13 -41 -13 -47 0 -72 -14 -114 -61 -19 -22 -40 -39 -48
-39 -7 0 -13 -5 -13 -11 0 -15 -59 -88 -120 -149 -25 -25 -59 -62 -76 -82 -39
-44 -65 -60 -124 -73 -45 -10 -45 -10 -56 -66 -6 -31 -15 -62 -19 -69 -5 -8
-4 -11 1 -7 5 3 20 -11 34 -31 37 -57 48 -64 76 -45 13 8 22 19 19 23 -3 4 9
27 25 51 16 24 30 49 30 55 0 16 44 44 57 36 5 -4 13 -16 18 -27 7 -19 8 -19
14 4 6 21 8 22 20 7 8 -10 12 -29 8 -49 -2 -17 -2 -65 2 -106 7 -69 5 -79 -24
-146 -17 -39 -39 -100 -49 -136 -29 -106 -28 -105 -149 -108 -102 -2 -105 -2
-111 21 -3 13 -6 31 -6 41 0 11 -20 38 -44 60 -39 38 -96 130 -96 156 0 6 -21
40 -46 76 -40 57 -48 64 -62 53 -13 -11 -15 -10 -9 5 5 12 1 17 -13 17 -11 0
-26 12 -34 29 -33 62 -168 81 -264 36 -29 -13 -64 -37 -78 -52 -69 -74 -136
-219 -152 -327 l-7 -51 -45 -5 c-39 -4 -45 -8 -48 -30 -3 -35 9 -49 54 -65 37
-12 40 -16 50 -72 19 -104 85 -263 109 -263 16 0 11 28 -16 85 -23 50 -59 188
-59 226 0 23 5 28 28 31 15 2 43 0 62 -4 19 -4 65 -8 101 -8 60 0 68 3 83 25
9 13 16 26 16 28 0 10 -51 18 -159 27 -72 6 -119 14 -128 23 -19 19 7 150 47
231 76 158 178 214 314 174 62 -19 167 -128 184 -191 8 -33 9 -54 2 -65 -5
-10 -10 -12 -10 -4 0 6 -4 12 -10 12 -6 0 -6 -9 0 -26 13 -34 13 -199 -1 -247
-9 -32 -7 -43 8 -65 9 -15 17 -30 16 -33 -1 -4 13 -15 32 -25 29 -15 35 -24
35 -51 0 -67 54 -21 82 70 20 66 62 71 211 27 73 -23 78 -26 87 -59 5 -20 10
-53 10 -73 0 -104 79 -267 175 -365 53 -53 71 -64 132 -83 61 -18 78 -20 134
-11 86 14 139 14 144 -1 2 -7 6 -24 9 -38 2 -14 7 -36 12 -49 7 -23 8 -24 15
-5 7 18 8 18 15 -3 3 -13 13 -23 21 -23 9 0 13 -6 10 -13 -3 -8 -1 -20 4 -28
7 -11 9 -11 9 4 0 35 43 16 48 -22 3 -28 19 -51 36 -51 6 0 5 4 -3 9 -12 8
-12 12 -2 25 8 9 21 16 30 16 18 0 53 -34 63 -61 3 -8 29 -23 59 -33 43 -16
49 -21 33 -27 -17 -7 -17 -8 4 -8 16 -1 22 -7 22 -25 0 -14 5 -28 10 -31 6 -4
8 -10 5 -15 -3 -5 -1 -11 5 -15 5 -3 10 -1 10 4 0 6 5 11 10 11 6 0 10 -7 10
-15 0 -7 8 -19 18 -24 9 -6 14 -11 10 -11 -4 0 -3 -13 3 -28 17 -50 141 -87
226 -68 24 5 90 -27 113 -54 8 -11 42 -29 75 -41 33 -12 62 -25 65 -29 3 -3
32 -14 65 -24 33 -10 70 -22 82 -28 13 -7 59 -8 125 -4 148 10 148 10 198 3
25 -3 50 -6 56 -6 5 -1 32 -22 60 -47 27 -25 65 -54 84 -64 19 -10 44 -27 55
-38 31 -28 70 -35 90 -16 14 15 22 15 58 4 23 -7 57 -17 75 -22 35 -10 39 -17
20 -36 -9 -9 -9 -12 0 -12 14 0 16 -27 3 -32 -5 -1 -18 -19 -28 -38 -21 -38
-53 -58 -102 -63 -36 -4 -71 -40 -71 -74 0 -13 -7 -26 -15 -29 -8 -4 -15 -14
-15 -24 0 -15 -12 -19 -62 -25 -52 -6 -134 -33 -104 -35 5 0 3 -7 -4 -15 -9
-11 -32 -15 -83 -15 -62 0 -72 -3 -93 -26 -31 -33 -30 -40 6 -59 37 -19 109
-19 146 0 16 8 36 15 45 15 9 0 33 13 53 29 20 16 50 33 67 36 16 4 29 13 29
20 0 8 4 16 8 19 15 9 52 -6 52 -21 0 -9 6 -13 13 -10 8 3 33 -3 57 -14 23
-10 62 -19 86 -19 24 0 44 -4 44 -10 0 -5 -4 -10 -10 -10 -5 0 -10 -5 -10 -12
0 -9 3 -9 12 0 18 18 68 15 68 -3 0 -8 -6 -15 -12 -15 -19 0 -22 -69 -3 -76 8
-4 15 -17 15 -31 0 -24 1 -25 69 -20 75 5 91 11 91 32 0 15 67 38 82 29 4 -3
8 0 8 5 0 6 3 10 8 10 28 -5 52 3 52 17 0 8 4 13 9 10 5 -3 6 14 3 39 -3 35
-1 46 12 51 9 3 16 16 16 28 0 11 10 37 21 56 14 22 17 36 10 38 -23 8 1 82
26 82 7 0 21 17 31 38 9 20 32 53 49 72 18 19 36 43 39 53 3 11 15 28 26 39
13 13 18 27 14 46 -4 19 3 45 24 86 16 32 30 69 30 81 0 28 49 82 86 95 27 10
80 71 96 112 4 10 13 18 19 18 8 0 10 16 7 50 -4 42 -2 52 13 61 11 5 19 15
19 22 0 7 7 25 15 40 14 27 13 123 -1 165 -2 7 1 22 7 33 9 17 5 22 -25 34
-49 21 -70 19 -81 -7 -14 -30 -27 -32 -55 -8 -13 11 -29 20 -35 20 -13 0 -22
31 -32 108 -4 31 -2 42 8 42 13 0 47 24 92 65 10 9 27 17 38 18 16 1 19 6 14
22 -18 54 -16 74 10 121 15 27 38 61 51 75 27 28 30 63 23 216 -4 74 -6 83
-32 103 -20 16 -27 30 -27 56 0 36 -16 73 -37 87 -7 4 -13 14 -13 22 0 8 -20
28 -45 46 -32 23 -48 44 -59 77 -9 24 -14 48 -11 52 3 4 -8 7 -23 7 -15 0 -21
-2 -14 -4 6 -3 12 -9 12 -14 0 -6 -4 -7 -10 -4 -5 3 -15 -3 -22 -15 -15 -24
-48 -27 -48 -3 0 9 -3 13 -7 9 -4 -4 -15 8 -25 26 -51 97 -52 101 -50 197 l3
94 44 59 c48 64 130 227 164 325 23 68 41 201 41 304 0 65 -34 183 -63 218 -7
7 -14 35 -17 62 l-5 48 -50 -25z m-161 -487 c29 -20 29 -21 8 -30 -12 -6 -22
-14 -22 -19 0 -4 -7 -8 -15 -8 -8 0 -15 5 -15 12 0 7 -12 22 -27 33 -56 45 9
56 71 12z m-1601 -44 c26 -3 47 -9 47 -13 0 -4 8 -7 18 -6 12 1 18 -8 20 -29
2 -16 6 -37 9 -45 3 -8 5 -20 5 -25 -1 -6 7 -16 17 -22 16 -10 18 -9 14 8 -4
15 -2 18 12 12 13 -4 16 -3 11 5 -4 7 -4 12 1 12 16 0 32 -16 42 -43 7 -18 18
-27 32 -27 19 0 21 -4 14 -36 l-6 -36 33 5 c18 3 43 8 54 12 18 5 23 1 32 -24
7 -19 7 -33 2 -36 -6 -4 -5 -12 3 -20 10 -11 15 -11 34 1 12 8 42 14 66 14 37
0 46 -4 57 -26 10 -18 11 -27 3 -32 -6 -4 -13 -18 -14 -31 -3 -20 1 -26 26
-32 25 -7 66 -14 96 -18 4 -1 10 -12 13 -25 5 -19 15 -25 51 -30 25 -4 45 -11
45 -16 0 -5 8 -16 17 -25 13 -13 14 -21 5 -35 -14 -23 -6 -30 35 -30 31 0 33
-2 27 -25 -6 -23 -3 -25 25 -25 33 0 34 -2 25 -38 -11 -39 -93 -71 -90 -35 1
16 -9 17 -102 14 -111 -3 -132 4 -132 45 0 19 -11 28 -50 46 -48 22 -63 42
-37 51 9 3 9 8 -2 21 -45 54 -148 61 -184 12 -28 -38 -41 -33 -33 13 5 32 3
42 -11 50 -15 8 -16 12 -5 22 17 18 15 49 -3 49 -8 0 -15 -4 -15 -10 0 -5 -9
-10 -20 -10 -24 0 -27 25 -4 38 8 5 17 25 18 45 3 32 0 36 -23 39 -21 2 -26 8
-26 30 0 33 -18 53 -41 44 -12 -5 -15 -14 -11 -34 3 -15 -1 -38 -8 -52 -7 -13
-11 -38 -8 -55 3 -21 0 -35 -11 -44 -14 -12 -16 -10 -17 10 0 13 -2 35 -3 48
-2 12 6 39 16 60 10 20 17 44 14 54 -2 9 0 17 6 17 15 0 41 30 33 38 -6 6 -93
7 -164 2 -13 -1 -27 4 -32 11 -10 17 -39 -6 -39 -32 0 -11 -6 -19 -14 -19 -8
0 -21 -3 -29 -6 -10 -3 -17 3 -21 20 -8 31 -32 34 -39 6 -10 -37 -27 -21 -27
25 0 45 0 45 -20 28 -21 -21 -29 -78 -16 -130 5 -22 4 -33 -3 -33 -6 0 -11 9
-11 20 0 21 -15 27 -25 10 -11 -17 -24 -1 -35 41 -9 33 -15 39 -34 37 -12 -2
-36 -18 -54 -36 -36 -37 -48 -40 -55 -12 -7 25 -27 26 -27 1 0 -19 -22 -30
-69 -37 -13 -2 -30 -5 -38 -8 -15 -6 -18 10 -3 19 6 3 10 14 10 23 0 9 10 28
21 42 11 14 18 20 15 14 -3 -7 1 -15 10 -18 11 -4 28 6 52 31 19 21 41 38 49
38 7 0 17 5 21 11 14 22 53 35 83 29 25 -6 31 -3 36 13 4 16 19 23 71 32 36 6
91 25 121 41 35 18 64 27 76 24 11 -4 41 -9 68 -12z m1517 -73 c16 0 35 -7 44
-15 8 -8 19 -15 24 -15 14 0 25 -34 13 -38 -23 -8 -10 -22 19 -22 21 0 30 -5
30 -16 0 -8 -4 -12 -10 -9 -5 3 -10 -1 -10 -9 0 -20 -10 -20 -35 -2 -21 14
-26 16 -49 16 -8 0 -23 13 -32 29 -9 16 -33 36 -53 46 -34 16 -35 17 -16 31
11 8 26 12 33 9 8 -3 26 -5 42 -5z m-285 -140 c3 -5 1 -10 -4 -10 -6 0 -11 5
-11 10 0 6 2 10 4 10 3 0 8 -4 11 -10z m41 -47 c1 -15 -4 -21 -17 -20 -10 1
-16 4 -13 8 2 4 -3 9 -11 13 -25 9 -17 25 13 23 20 -2 27 -8 28 -24z m-1236
-4 c-18 -33 -43 -59 -57 -59 -22 0 -15 15 23 48 42 37 49 40 34 11z m1300 11
c-19 -13 -30 -13 -30 0 0 6 10 10 23 10 18 0 19 -2 7 -10z m-2132 -41 c2 -29
-2 -38 -28 -57 -17 -13 -35 -20 -40 -17 -14 8 -69 -56 -70 -81 0 -11 -11 -44
-25 -72 -14 -29 -25 -56 -25 -60 0 -15 -42 -30 -122 -44 -59 -11 -78 -11 -78
-2 0 6 7 17 15 24 8 7 15 19 15 27 0 19 33 63 87 116 53 54 64 61 88 65 44 8
124 66 142 104 22 45 37 44 41 -3z m1972 1 c12 -8 10 -10 -10 -10 -14 0 -32 5
-40 10 -12 8 -10 10 10 10 14 0 32 -5 40 -10z m-2397 -21 c14 -6 30 -22 36
-36 10 -22 9 -24 -9 -18 -16 5 -20 2 -20 -18 0 -13 -14 -41 -30 -62 -17 -21
-28 -45 -26 -52 3 -7 1 -13 -4 -13 -6 0 -10 11 -10 25 0 15 -6 25 -14 25 -17
0 -29 44 -20 73 4 12 17 29 30 39 13 11 21 25 17 33 -6 18 16 20 50 4z m647
-50 c0 -19 -34 -114 -42 -117 -5 -2 -8 -16 -8 -31 0 -16 -10 -43 -22 -62 -41
-62 -50 -85 -51 -143 -2 -56 -2 -57 15 -35 l18 21 0 -26 c0 -14 5 -26 10 -26
6 0 10 7 10 15 0 8 5 15 10 15 6 0 10 -8 10 -17 0 -17 30 38 44 81 4 12 13 17
26 13 15 -4 20 0 20 14 0 10 9 23 20 29 16 8 18 15 10 35 -6 16 -6 27 1 31 7
4 6 10 -1 19 -12 15 14 25 68 25 29 0 69 15 82 31 4 5 57 18 85 20 22 1 13
-18 -15 -35 -24 -14 -30 -24 -28 -44 2 -23 8 -27 33 -27 27 0 30 3 28 29 -1
17 2 35 8 42 11 13 42 8 34 -6 -3 -4 2 -11 11 -14 12 -4 15 -15 12 -36 -6 -37
3 -38 37 -4 14 14 29 23 34 19 5 -3 13 0 16 6 4 6 -2 13 -14 16 -49 13 -12 40
119 88 l45 16 -27 -26 c-33 -31 -35 -41 -8 -55 15 -8 20 -8 20 2 0 7 11 18 25
24 23 11 24 10 23 -12 -2 -17 -10 -25 -30 -29 -17 -4 -33 -18 -43 -37 -20 -42
-21 -41 25 -34 32 5 40 3 40 -9 0 -9 13 -24 30 -33 30 -17 35 -39 9 -35 -11 2
-16 -8 -17 -33 l-3 -37 40 6 c45 6 56 -6 34 -39 -12 -19 -11 -22 14 -35 16 -7
48 -14 73 -14 31 0 44 -4 43 -12 -2 -7 4 -13 12 -13 8 0 15 5 15 10 0 6 12 10
28 10 l27 0 -32 -20 c-41 -25 -43 -50 -5 -50 15 0 36 -7 46 -15 11 -8 27 -15
37 -15 22 0 29 -19 18 -47 -12 -32 -39 -30 -39 2 0 24 -3 25 -57 25 -40 0 -67
6 -87 19 l-29 19 34 18 c30 15 32 18 14 24 -11 4 -26 3 -32 -2 -9 -7 -15 -5
-20 8 -10 28 -24 34 -62 27 -24 -4 -32 -2 -27 6 5 7 -2 11 -18 11 -14 0 -27
-4 -31 -10 -7 -12 30 -50 49 -50 12 0 13 -6 5 -30 -10 -26 -13 -28 -31 -19
-16 8 -31 8 -61 -2 -37 -12 -41 -12 -57 9 -10 12 -30 26 -45 32 -15 6 -29 20
-32 31 -5 19 -12 21 -59 17 -30 -3 -55 0 -57 5 -2 6 -11 5 -24 -2 -12 -6 -32
-11 -45 -11 -13 0 -45 -12 -73 -25 -61 -30 -85 -31 -153 -5 -29 11 -62 20 -75
20 -13 0 -39 8 -59 19 -21 10 -39 14 -40 9 -5 -14 -38 2 -38 18 0 8 -5 14 -11
14 -8 0 -9 12 -4 37 7 37 6 37 -13 20 -16 -15 -22 -16 -33 -4 -23 22 -49 28
-49 12 0 -8 -4 -15 -10 -15 -5 0 -10 4 -10 9 0 5 -19 27 -41 49 -35 33 -40 42
-31 58 13 25 128 144 139 144 5 0 38 27 73 59 35 33 68 57 72 55 3 -2 9 0 13
6 8 14 35 13 35 -1z m406 -21 c-10 -51 -36 -71 -80 -63 l-37 7 42 39 c64 59
84 63 75 17z m-146 -2 c0 -3 -4 -8 -10 -11 -5 -3 -10 -1 -10 4 0 6 5 11 10 11
6 0 10 -2 10 -4z m-212 -47 c-19 -13 -28 -11 -28 6 0 8 7 15 15 15 8 0 16 6
16 13 1 6 3 4 6 -7 3 -10 -1 -22 -9 -27z m177 21 c12 -19 -15 -38 -58 -43 -23
-2 -52 -8 -64 -12 -16 -5 -23 -3 -23 6 0 28 18 40 66 48 70 12 72 12 79 1z
m1500 -80 c4 -6 -9 -10 -32 -9 -30 0 -34 2 -18 9 27 12 43 12 50 0z m-2468
-32 c-3 -7 -5 -2 -5 12 0 14 2 19 5 13 2 -7 2 -19 0 -25z m2768 -58 c82 -16
96 -23 62 -28 -37 -5 -130 15 -153 34 -22 16 -23 16 91 -6z m-1168 -82 c-2 -7
-14 -13 -26 -12 -11 0 -21 -5 -21 -13 0 -7 7 -13 15 -13 26 0 16 -20 -15 -34
-17 -7 -27 -16 -23 -21 5 -4 3 -5 -3 -2 -12 7 -18 88 -6 85 4 0 14 1 22 5 51
19 63 20 57 5z m-1377 -48 c-6 -11 -17 -20 -25 -20 -8 0 -15 -4 -15 -10 0 -16
-20 -12 -26 5 -9 23 15 45 48 45 26 0 28 -2 18 -20z m218 -27 c51 -39 69 -58
86 -92 22 -43 20 -61 -7 -61 -13 0 -27 -4 -32 -9 -16 -14 -105 -24 -105 -12 0
14 -57 14 -63 1 -3 -6 -4 -5 -3 2 2 7 -1 21 -6 31 -11 21 7 95 29 120 9 9 12
17 8 17 -14 0 29 29 43 30 7 0 30 -12 50 -27z m-301 1 c-3 -3 -12 -4 -19 -1
-8 3 -5 6 6 6 11 1 17 -2 13 -5z m1613 -64 c0 -5 -7 -10 -16 -10 -8 0 -12 5
-9 10 3 6 10 10 16 10 5 0 9 -4 9 -10z m-1680 -20 c0 -5 -4 -10 -10 -10 -5 0
-10 5 -10 10 0 6 5 10 10 10 6 0 10 -4 10 -10z m1877 -36 c-3 -3 -12 -4 -19
-1 -8 3 -5 6 6 6 11 1 17 -2 13 -5z m-422 -104 c-3 -5 -20 -10 -36 -10 -18 0
-28 4 -24 10 3 6 20 10 36 10 18 0 28 -4 24 -10z m-1535 -23 c0 -24 43 -91 52
-81 3 3 21 -1 39 -9 22 -9 44 -11 63 -6 15 4 25 5 22 2 -3 -4 1 -14 10 -24 14
-16 13 -23 -16 -84 -27 -57 -38 -70 -71 -84 -43 -18 -47 -33 -23 -85 17 -35
31 -44 95 -65 48 -15 49 -15 49 13 0 13 7 29 15 36 8 7 15 20 15 30 0 35 25
42 140 41 94 -1 112 2 117 16 4 9 -1 21 -12 29 -15 11 -16 17 -7 26 14 14 16
62 2 53 -5 -3 -10 1 -10 9 0 9 4 16 9 16 14 0 21 42 10 62 -6 12 -6 18 1 18 5
0 9 3 9 8 -4 22 4 29 31 30 17 0 30 -3 30 -7 0 -5 12 -6 27 -3 21 4 25 2 20
-12 -4 -9 -2 -16 3 -16 9 0 30 -64 36 -109 1 -14 -4 -30 -13 -36 -19 -14 -28
-82 -12 -101 20 -24 -3 -127 -42 -194 -5 -8 -12 -22 -16 -30 -4 -8 -10 -17
-13 -20 -4 -3 -19 -26 -34 -52 -15 -27 -32 -48 -37 -48 -5 0 -19 -16 -30 -35
-14 -24 -28 -35 -44 -35 -13 0 -25 -7 -28 -14 -8 -21 -83 -39 -131 -32 -147
22 -274 156 -291 308 -4 29 -14 73 -23 98 -21 57 -23 274 -3 335 22 66 61 99
61 52z m1374 7 c9 -8 13 -20 10 -26 -4 -6 -10 -6 -17 1 -6 6 -19 11 -29 11
-18 0 -24 11 -11 23 11 12 31 8 47 -9z m-286 -136 c-3 -37 -13 -66 -34 -95
-34 -50 -42 -51 -159 -37 -85 10 -85 16 -1 73 42 28 82 51 89 51 7 0 26 14 42
30 16 17 37 30 48 30 17 0 19 -6 15 -52z m504 -329 c20 -8 26 -17 25 -37 -2
-24 -8 -28 -52 -35 -27 -4 -55 -13 -63 -19 -9 -8 -16 -8 -24 0 -7 7 -26 12
-44 12 -32 0 -60 21 -47 34 4 4 1 11 -7 16 -21 13 -10 19 44 24 27 3 50 6 51
8 9 9 94 7 117 -3z m-751 -574 c-1 -5 -10 -11 -21 -11 -20 -1 -26 7 -13 20 10
9 34 3 34 -9z m1569 -1095 c0 -5 -18 -10 -40 -10 -22 0 -40 5 -40 10 0 6 18
10 40 10 22 0 40 -4 40 -10z"/>
<path d="M6580 6410 c0 -5 7 -10 16 -10 8 0 12 5 9 10 -3 6 -10 10 -16 10 -5
0 -9 -4 -9 -10z"/>
<path d="M7330 6950 c0 -5 4 -10 9 -10 6 0 13 5 16 10 3 6 -1 10 -9 10 -9 0
-16 -4 -16 -10z"/>
<path d="M5140 6589 c0 -5 5 -7 10 -4 6 3 10 8 10 11 0 2 -4 4 -10 4 -5 0 -10
-5 -10 -11z"/>
<path d="M5644 6479 c-10 -16 41 -59 70 -59 14 0 27 -4 30 -9 7 -11 94 5 113
21 20 16 1 30 -26 20 -22 -8 -111 14 -128 32 -10 10 -51 7 -59 -5z"/>
<path d="M4769 5672 c-17 -2 -29 -11 -32 -24 -3 -11 -10 -17 -16 -13 -6 3 -11
-1 -11 -9 0 -9 5 -16 10 -16 6 0 10 -6 10 -13 0 -15 45 -59 75 -75 22 -11 55
11 34 23 -7 5 -4 13 6 25 13 14 15 28 10 58 -7 42 -24 51 -86 44z"/>
<path d="M4150 7190 c8 -8 14 -25 12 -37 -2 -13 1 -23 6 -23 5 0 15 -13 22
-30 15 -36 49 -73 75 -84 14 -5 24 -1 37 16 10 13 18 17 18 11 0 -18 27 -16
34 3 3 8 -1 28 -9 44 -20 38 -19 50 3 50 41 1 -67 40 -127 46 -36 4 -71 9 -76
13 -6 3 -4 -1 5 -9z"/>
<path d="M4840 6950 c0 -5 5 -10 10 -10 6 0 10 5 10 10 0 6 -4 10 -10 10 -5 0
-10 -4 -10 -10z"/>
<path d="M7546 6393 c-11 -11 -6 -23 9 -23 8 0 15 4 15 9 0 13 -16 22 -24 14z"/>
<path d="M4084 6217 c10 -55 28 -91 37 -75 12 19 -1 71 -23 93 -20 20 -20 20
-14 -18z"/>
<path d="M3827 5774 c-11 -11 3 -24 18 -18 8 4 12 10 9 15 -6 11 -18 12 -27 3z"/>
<path d="M3613 5663 c-7 -3 -13 -11 -13 -19 0 -8 -5 -14 -11 -14 -6 0 -9 -7
-6 -15 4 -8 2 -17 -3 -20 -18 -11 -11 -45 9 -45 37 0 71 19 71 40 0 11 5 20
10 20 6 0 10 12 9 28 0 15 -3 21 -6 15 -3 -10 -9 -9 -26 1 -12 8 -28 12 -34 9z"/>
<path d="M3451 5583 c13 -16 25 -30 27 -32 1 -2 4 -2 7 0 5 6 -40 59 -50 59
-5 0 2 -12 16 -27z"/>
<path d="M3511 5514 c13 -14 35 -36 49 -49 18 -18 24 -33 22 -58 -2 -30 1 -35
22 -39 14 -3 23 -1 20 3 -9 15 42 39 101 49 79 13 93 18 105 40 13 25 -3 35
-32 19 -28 -15 -166 -15 -181 0 -6 6 -18 11 -28 11 -9 0 -33 11 -53 25 -47 32
-54 32 -25 -1z"/>
<path d="M3594 5511 c3 -5 15 -7 26 -4 28 7 25 13 -6 13 -14 0 -23 -4 -20 -9z"/>
<path d="M4304 5414 c-30 -20 -127 -44 -152 -37 -37 9 -71 -5 -78 -32 -7 -30
-40 -55 -70 -55 -12 0 -26 -10 -34 -25 -20 -37 0 -90 60 -154 27 -30 50 -63
50 -74 0 -11 3 -17 8 -13 4 4 8 41 9 82 2 110 45 176 139 213 40 16 97 74 92
94 -3 13 -6 13 -24 1z"/>
<path d="M5060 5070 c0 -5 7 -10 16 -10 8 0 12 5 9 10 -3 6 -10 10 -16 10 -5
0 -9 -4 -9 -10z"/>
<path d="M4052 4968 c-7 -7 -12 -20 -12 -31 0 -14 6 -18 28 -15 21 2 28 9 30
31 3 21 -1 27 -15 27 -11 0 -24 -5 -31 -12z"/>
<path d="M4135 4919 c-10 -29 31 -72 62 -65 12 4 28 0 35 -7 23 -22 67 -47 82
-47 9 0 20 -9 26 -20 6 -11 19 -20 30 -20 10 0 25 -8 32 -19 7 -10 23 -21 36
-25 12 -4 22 -11 22 -16 0 -16 122 -71 149 -68 60 7 17 109 -54 128 -22 6 -47
15 -55 20 -8 5 -29 17 -47 25 -17 9 -39 25 -49 36 -9 10 -25 19 -34 19 -26 0
-90 29 -90 40 0 17 -42 11 -56 -7 -12 -17 -13 -17 -19 0 -4 9 -16 17 -27 17
-14 0 -18 5 -14 15 3 9 0 15 -9 15 -7 0 -17 -9 -20 -21z"/>
<path d="M6700 4370 c0 -5 5 -10 10 -10 6 0 10 5 10 10 0 6 -4 10 -10 10 -5 0
-10 -4 -10 -10z"/>
<path d="M8628 4363 c7 -3 16 -2 19 1 4 3 -2 6 -13 5 -11 0 -14 -3 -6 -6z"/>
<path d="M8025 4068 c-88 -14 -166 -39 -162 -52 6 -18 96 -25 196 -14 73 8 95
8 101 -2 12 -19 44 9 48 41 2 23 -2 27 -35 33 -46 7 -69 6 -148 -6z"/>
<path d="M8502 3790 c-11 -24 -11 -37 -2 -65 7 -20 9 -42 6 -51 -3 -8 12 -33
40 -62 25 -26 53 -62 62 -81 10 -19 22 -33 27 -32 6 0 11 56 13 136 l3 135
-28 11 c-15 6 -36 18 -45 26 -14 13 -18 13 -18 3 0 -11 -3 -11 -12 -2 -19 19
-32 14 -46 -18z"/>
<path d="M7210 3570 c-11 -7 -4 -10 27 -10 23 0 45 5 48 10 8 13 -55 13 -75 0z"/>
<path d="M8610 3473 c-51 -8 -53 -11 -29 -45 24 -35 48 -58 61 -58 4 0 8 25 8
55 0 30 -3 54 -7 54 -5 -1 -19 -4 -33 -6z"/>
<path d="M4473 3221 c2 -10 0 -25 -4 -34 -11 -19 -1 -47 16 -47 25 0 35 66 13
88 -18 18 -31 15 -25 -7z"/>
<path d="M4780 3060 c-12 -7 -12 -12 -3 -21 15 -15 26 -7 21 15 -2 11 -7 13
-18 6z"/>
<path d="M5070 3045 c0 -28 15 -34 24 -9 10 25 7 34 -9 34 -9 0 -15 -9 -15
-25z"/>
<path d="M4837 3044 c-10 -11 3 -24 23 -24 13 0 17 5 14 15 -6 15 -26 20 -37
9z"/>
<path d="M3092 2930 c9 -14 14 -16 20 -7 5 8 8 5 8 -8 0 -15 7 -20 25 -20 14
0 25 3 25 8 0 4 -7 7 -15 7 -8 0 -19 9 -25 20 -6 11 -20 20 -30 20 -18 0 -19
-3 -8 -20z"/>
<path d="M3256 2882 c-6 -10 26 -22 59 -22 16 1 17 2 5 9 -28 16 -58 22 -64
13z"/>
<path d="M3382 2849 c3 -8 18 -18 34 -22 16 -5 44 -13 62 -19 45 -13 50 -5 12
22 -38 27 -115 40 -108 19z"/>
<path d="M7905 2514 c16 -12 17 -16 6 -23 -7 -5 -10 -14 -6 -21 5 -8 12 -3 21
15 20 38 18 45 -13 45 -27 -1 -27 -1 -8 -16z"/>
<path d="M7985 2500 c-3 -5 -1 -10 4 -10 6 0 11 5 11 10 0 6 -2 10 -4 10 -3 0
-8 -4 -11 -10z"/>
<path d="M2615 2243 c11 -3 23 -10 26 -15 4 -6 13 -7 20 -3 15 10 -13 24 -46
23 l-20 0 20 -5z"/>
<path d="M7551 2116 c-9 -10 -9 -16 -1 -21 17 -10 37 12 24 25 -8 8 -15 6 -23
-4z"/>
<path d="M7610 1960 c0 -5 5 -10 10 -10 6 0 10 5 10 10 0 6 -4 10 -10 10 -5 0
-10 -4 -10 -10z"/>
<path d="M6205 1810 c-4 -6 -9 -47 -12 -91 -4 -48 -11 -83 -19 -90 -8 -6 -14
-18 -14 -25 0 -17 95 -20 105 -4 9 14 58 13 73 -2 18 -18 23 -5 10 30 -14 36
-20 39 -43 16 -12 -13 -21 -14 -39 -6 -20 9 -21 15 -16 70 5 52 3 64 -16 87
-15 18 -24 23 -29 15z"/>
</g>
</svg>
